<svg preserveAspectRatio="none" width="100%" height="100%" overflow="visible" style="display: block;" viewBox="0 0 29 28.9834" fill="none" xmlns="http://www.w3.org/2000/svg">
<g id="Group" filter="url(#filter0_d_0_4)">
<path id="Vector" d="M21.1419 21.3955C20.3477 20.7618 17.8734 19.5426 17.2629 19.4021C16.6537 19.2604 15.9162 19.8496 15.7131 20.5812C15.5088 21.3132 15.1279 21.2439 15.1279 21.2439C15.1279 21.2439 13.6603 20.7047 10.9758 18.0305C8.29086 15.3554 7.74816 13.8898 7.74816 13.8898C7.74816 13.8898 7.67651 13.5089 8.40815 13.3018C9.13822 13.0968 9.725 12.3569 9.58174 11.7476C9.43929 11.1384 8.21018 8.66761 7.57418 7.87689C6.93664 7.08622 5.70515 7.49398 5.43441 7.69114C5.16209 7.88758 2.30007 9.70706 3.16082 13.0574C4.02269 16.4083 5.87168 19.0888 7.90363 21.1141C9.93599 23.1386 12.6232 24.9773 15.9768 25.8266C19.3299 26.6763 21.1392 23.8076 21.3348 23.5353C21.5308 23.2637 21.9338 22.0303 21.1419 21.3955Z" fill="var(--fill-0, #004F5C)"/>
<path id="Vector_2" d="M14.0968 11.4899C14.5415 11.7079 15.2487 12.1125 16.0685 12.9319C16.8883 13.7517 17.2925 14.4589 17.5105 14.9032C17.7396 15.3704 17.9088 15.4645 18.0458 15.4326C18.2717 15.3802 18.3468 15.3196 18.3677 14.8486C18.385 14.4471 18.193 13.2499 16.9717 12.0287C15.7505 10.8074 14.5529 10.6158 14.1522 10.6331C13.6807 10.6532 13.6209 10.7287 13.5686 10.9554C13.5367 11.0916 13.6296 11.2612 14.0968 11.4899Z" fill="var(--fill-0, #004F5C)"/>
<path id="Vector_3" d="M14.8122 6.77621C14.2369 6.77581 14.0916 7.132 14.0742 7.27013C14.0388 7.54919 14.2447 7.77546 14.6721 7.89787C15.1609 8.03758 17.0972 8.65863 18.7195 10.2809C20.3422 11.9032 20.9636 13.8399 21.1029 14.3287C21.2249 14.7557 21.4508 14.9612 21.7302 14.9261C21.8691 14.9096 22.2249 14.764 22.2241 14.1886C22.2245 13.7332 21.9462 11.3486 19.799 9.20056C17.6522 7.05365 15.2664 6.77576 14.8122 6.77621Z" fill="var(--fill-0, #004F5C)"/>
<path id="Vector_4" d="M22.6445 6.35583C19.5688 3.28016 16.3239 3.0153 15.7662 3.0007C15.0853 2.98341 14.8154 3.28883 14.8158 3.60207C14.8154 3.86891 15.0889 4.1432 15.4958 4.24792C16.1066 4.40451 18.5279 4.7859 21.3709 7.62901C24.2148 10.4721 24.5954 12.8937 24.7528 13.5049C24.8571 13.9111 25.1318 14.185 25.3983 14.185C25.7119 14.185 26.0173 13.9154 25.9992 13.235C25.9851 12.6769 25.7202 9.43196 22.6445 6.35583Z" fill="var(--fill-0, #004F5C)"/>
</g>
<defs>
<filter id="filter0_d_0_4" x="-4.48915e-09" y="0" width="29" height="28.9834" filterUnits="userSpaceOnUse" color-interpolation-filters="sRGB">
<feFlood flood-opacity="0" result="BackgroundImageFix"/>
<feColorMatrix in="SourceAlpha" type="matrix" values="0 0 0 0 0 0 0 0 0 0 0 0 0 0 0 0 0 0 127 0" result="hardAlpha"/>
<feOffset/>
<feGaussianBlur stdDeviation="1.5"/>
<feComposite in2="hardAlpha" operator="out"/>
<feColorMatrix type="matrix" values="0 0 0 0 0 0 0 0 0 0 0 0 0 0 0 0 0 0 0.25 0"/>
<feBlend mode="normal" in2="BackgroundImageFix" result="effect1_dropShadow_0_4"/>
<feBlend mode="normal" in="SourceGraphic" in2="effect1_dropShadow_0_4" result="shape"/>
</filter>
</defs>
</svg>
