<svg preserveAspectRatio="none" width="100%" height="100%" overflow="visible" style="display: block;" viewBox="0 0 51.8145 29.5389" fill="none" xmlns="http://www.w3.org/2000/svg">
<path id="Vector" d="M29.8409 24.6641H21.8855C20.8533 24.6641 19.6954 25.7775 19.6716 26.7682L19.6054 29.527L3.91346 25.7281C2.00184 25.266 0.0970032 23.8746 0.0766306 21.7774L0.000233515 13.6493C-0.0235345 11.1684 1.76925 8.77452 4.38882 8.75236L13.3392 8.67563L13.3986 5.49226C13.7823 2.2458 16.7346 -0.0253623 19.967 0.000213837L32.8255 0.102514C35.8627 0.126385 38.2956 2.88349 38.5061 5.7429L38.557 8.68586L46.959 8.67563C49.4631 8.67222 51.7873 10.558 51.7941 13.189L51.8145 21.3494C51.8196 23.3614 50.2831 25.1245 48.3053 25.6087L32.2687 29.5389L32.2636 27.4451C32.2602 26.1117 31.3961 24.6624 29.8392 24.6624L29.8409 24.6641ZM34.2143 8.68244L34.2635 6.68069C34.2907 5.5417 33.4333 4.64142 32.3434 4.44363L19.8159 4.45728C18.4781 4.45728 17.5835 5.61331 17.597 6.82903L17.6174 8.68586L34.2143 8.68244Z" fill="url(#paint0_linear_0_18)"/>
<defs>
<linearGradient id="paint0_linear_0_18" x1="15.1485" y1="-3.41898e-07" x2="43.2643" y2="20.4807" gradientUnits="userSpaceOnUse">
<stop stop-color="#46B9BD"/>
<stop offset="1" stop-color="#007083"/>
</linearGradient>
</defs>
</svg>
