<svg preserveAspectRatio="none" width="100%" height="100%" overflow="visible" style="display: block;" viewBox="0 0 206.075 120.115" fill="none" xmlns="http://www.w3.org/2000/svg">
<g id="light" opacity="0.7">
<path id="Vector" opacity="0.6" d="M103.038 120.115C159.944 120.115 206.075 93.2263 206.075 60.0575C206.075 26.8886 159.944 0 103.038 0C46.1315 0 0 26.8886 0 60.0575C0 93.2263 46.1315 120.115 103.038 120.115Z" fill="url(#paint0_radial_0_4)"/>
<path id="Vector_2" d="M103.038 120.115C159.944 120.115 206.075 93.2263 206.075 60.0575C206.075 26.8886 159.944 0 103.038 0C46.1315 0 0 26.8886 0 60.0575C0 93.2263 46.1315 120.115 103.038 120.115Z" fill="url(#paint1_radial_0_4)"/>
</g>
<defs>
<radialGradient id="paint0_radial_0_4" cx="0" cy="0" r="1" gradientUnits="userSpaceOnUse" gradientTransform="translate(103.038 60.0575) scale(103.038 60.0575)">
<stop stop-color="white"/>
<stop offset="0.11" stop-color="white" stop-opacity="0.81"/>
<stop offset="0.24" stop-color="white" stop-opacity="0.6"/>
<stop offset="0.37" stop-color="white" stop-opacity="0.41"/>
<stop offset="0.5" stop-color="white" stop-opacity="0.26"/>
<stop offset="0.63" stop-color="white" stop-opacity="0.15"/>
<stop offset="0.76" stop-color="white" stop-opacity="0.07"/>
<stop offset="0.88" stop-color="white" stop-opacity="0.02"/>
<stop offset="1" stop-color="white" stop-opacity="0"/>
</radialGradient>
<radialGradient id="paint1_radial_0_4" cx="0" cy="0" r="1" gradientUnits="userSpaceOnUse" gradientTransform="translate(103.038 60.0575) scale(103.038 60.0575)">
<stop stop-color="white" stop-opacity="0.96"/>
<stop offset="0.05" stop-color="white" stop-opacity="0.78"/>
<stop offset="0.09" stop-color="white" stop-opacity="0.61"/>
<stop offset="0.14" stop-color="white" stop-opacity="0.47"/>
<stop offset="0.2" stop-color="white" stop-opacity="0.34"/>
<stop offset="0.25" stop-color="white" stop-opacity="0.23"/>
<stop offset="0.32" stop-color="white" stop-opacity="0.15"/>
<stop offset="0.4" stop-color="white" stop-opacity="0.08"/>
<stop offset="0.49" stop-color="white" stop-opacity="0.03"/>
<stop offset="0.63" stop-color="white" stop-opacity="0"/>
<stop offset="1" stop-color="white" stop-opacity="0"/>
</radialGradient>
</defs>
</svg>
