<svg preserveAspectRatio="none" width="100%" height="100%" overflow="visible" style="display: block;" viewBox="0 0 173.549 164.133" fill="none" xmlns="http://www.w3.org/2000/svg">
<g id="Group">
<path id="Vector" d="M26.5529 107.765L27.4635 113.598L89.6348 113.591L90.4182 108.213C90.5655 107.2 91.4075 106.541 92.37 106.744C93.3325 106.947 93.689 107.812 93.5384 108.798L92.8119 113.537L93.828 113.585C95.1855 113.649 96.3589 114.072 97.1976 114.942C98.1869 115.968 98.4246 117.212 98.2655 118.649L95.9271 139.731C98.7476 139.309 101.377 139.336 104.046 139.849C105.003 140.034 105.499 140.859 105.356 141.795C105.227 142.637 104.344 143.195 103.403 143.012C100.775 142.505 98.1232 142.571 95.5354 143.017L93.7911 158.313C97.2093 158.379 100.534 158.279 103.843 157.766C105.751 157.468 107.45 156.783 108.999 155.69C110.792 154.228 111.94 152.189 112.263 149.91C108.004 145.323 106.066 139.261 107.023 133.112C108.07 126.389 112.298 120.655 118.52 118.002C124.903 115.28 132.296 115.911 137.964 119.952C147.824 126.981 148.99 141.031 140.914 149.736C134.205 156.968 123.148 158.007 115.088 152.377C112.926 159.283 106.908 161.29 100.15 161.625L93.3844 161.704C93.227 162.953 92.3064 164.128 90.927 164.128L25.3092 164.133C23.801 164.133 22.7782 163.136 22.5807 161.679C15.7427 161.682 7.04667 162.018 2.7246 156.18C0.737649 153.497 -0.181336 150.184 0.0295786 146.782C0.210362 143.871 0.740997 141.161 1.49928 138.325L9.95261 106.713C11.034 102.667 12.2961 98.8262 14.3098 95.214C16.3236 91.6017 19.2546 88.9985 22.969 87.3978C25.2422 86.4173 27.4937 85.7209 29.9476 85.3203L41.3186 83.4609C42.497 83.2682 43.7358 83.0147 44.628 82.2472C45.4114 81.5745 45.495 80.3726 45.5402 79.4142C43.9935 79.5038 42.6912 79.4007 41.2383 78.8699C38.7424 79.9331 35.9637 79.9179 33.334 78.9612C34.253 78.3459 34.9644 77.7813 35.4163 77.0173C31.0792 78.9967 26.3872 78.8378 22.3932 76.5626C21.4173 76.0064 20.6507 75.2948 20.0179 74.3245L22.7113 74.2789C25.418 73.956 27.5924 71.8363 27.9088 69.0151C26.1763 71.2684 23.6637 72.6545 20.8448 72.362C18.8562 72.1558 17.1354 71.0199 16.2114 69.2788L16.3738 68.8461C16.4039 68.7633 16.6567 68.8326 16.7487 68.8529C18.7357 69.5307 20.7243 68.978 21.9463 67.2521C23.9198 64.3633 23.4863 59.8822 22.9406 56.2378C21.0089 43.3184 22.9439 29.7752 29.0755 18.2284C33.9115 9.12249 41.8693 1.40771 52.3364 0.166991C56.091 -0.277572 59.6799 0.145017 63.1332 1.68155C71.7958 -1.6924 79.8942 5.01493 84.7519 12.0705C91.4761 21.8357 94.8189 34.5995 94.8758 46.4489C94.8926 49.9936 94.5109 53.3151 94.0355 56.7837C93.5819 60.0951 93.1601 64.2213 94.8072 66.9292C95.9488 68.8698 98.1986 69.6947 100.303 68.8343L100.671 68.8884C101.166 68.9611 99.7336 71.8008 96.6736 72.2995C93.6991 72.7829 90.8283 71.4847 89.0522 68.9002C89.3134 71.4273 91.0861 73.6247 93.6304 74.1842C94.6515 74.4091 95.5806 74.3043 96.8561 74.3296C96.3773 75.1545 95.7295 75.8053 94.9428 76.3039C90.8952 78.8682 85.9639 79.0998 81.6167 76.9869C82.1473 77.8371 82.8303 78.3442 83.7576 78.9646C81.1932 80.0058 78.4362 79.8621 75.8801 78.9409C74.4573 79.3533 73.1048 79.5055 71.6033 79.4058C71.6819 80.4487 71.7824 81.708 72.6679 82.3774C73.6086 83.089 74.8858 83.28 76.0693 83.4744L86.4326 85.1766C93.7275 86.3751 99.9378 89.3467 103.264 96.2315C104.449 98.6842 105.304 101.107 106.019 103.765L110.328 119.797C110.443 120.223 110.599 120.838 110.467 121.136L108.163 124.036L107.881 124.023L103.004 105.632L100.827 99.024C100.132 96.9178 98.8732 95.0382 97.2947 93.4813C92.5106 88.7585 85.1068 88.3934 78.6421 87.249C75.9421 92.4063 70.8081 94.7018 65.4281 96.0388C57.9909 97.6109 48.7174 96.6305 42.5339 92.0378C40.8047 90.7531 39.4656 89.2555 38.4846 87.2253L33.3557 88.0671C27.1706 89.083 20.9352 90.5165 17.5522 96.289C16.4458 98.1755 15.5552 100.133 14.9442 102.275L11.4658 114.462L8.49796 125.517L3.86956 143.416C3.38245 145.297 3.36738 147.245 3.57328 149.102C3.84613 151.557 4.84379 153.695 6.58467 155.353C10.6557 158.633 17.0735 158.312 22.2091 158.312L20.5067 143C17.7966 142.502 15.0631 142.591 12.3781 143.021C11.5412 143.154 10.8649 142.442 10.7795 141.773C10.6757 140.957 11.0808 140.128 11.9513 139.924C14.6295 139.293 17.3095 139.383 20.12 139.707L18.2519 122.997L17.7916 117.735C17.6125 115.689 19.4253 113.94 21.3771 113.671L24.2513 113.613L23.5516 108.458C23.431 107.565 24.0002 106.989 24.735 106.781C25.3694 106.602 26.414 106.844 26.5596 107.772L26.5529 107.765ZM62.9926 76.8398C71.0626 74.1251 76.9766 68.339 79.7603 60.2895C81.0141 56.5454 81.7757 52.8097 82.1875 48.8695L82.5825 41.6382C80.162 38.5904 78.1366 35.4903 76.2835 32.1029C73.0897 26.5264 70.1955 20.911 65.0465 16.7747C62.323 24.5791 57.0652 30.1775 50.5369 34.8446C45.6608 38.3301 40.4934 41.1784 34.7033 43.0936C34.9075 49.8076 35.8917 56.7111 38.6772 62.8031C41.1295 68.1953 45.2507 72.4009 50.4967 75.026L54.5912 76.8094C57.323 77.7053 60.1352 77.8016 62.9926 76.8398ZM33.344 57.1218C32.2225 52.4344 31.7036 48.0649 31.5178 43.5229C30.2205 43.1172 28.9048 43.7156 28.2603 44.9512C26.8408 47.6727 27.7715 51.9747 29.5643 54.5863C30.5201 55.8557 31.7036 56.9916 33.344 57.1218ZM89.4138 44.86C88.6706 43.4942 87.1155 42.9921 85.7546 43.7257C85.6174 48.3708 84.9863 52.7674 83.9468 57.2739C88.9317 56.711 91.6 48.8746 89.4138 44.86ZM75.3043 86.6506C73.8748 86.3464 72.7248 86.037 71.5581 85.535C70.1821 84.7878 69.2815 83.6502 68.858 82.1255C68.5601 80.7969 68.4261 79.4463 68.401 78.0078C63.4512 80.7513 58.5282 81.7537 53.1633 79.7759L48.8011 77.8794C48.6504 81.495 48.565 84.1827 45.1234 85.8021L41.8743 86.7267C42.9457 88.439 44.5292 89.7338 46.4157 90.677C53.5851 94.2589 62.3665 94.4905 69.6883 91.1926C71.9498 90.1733 73.9267 88.7636 75.3043 86.654V86.6506ZM143.071 136.137C143.071 126.911 135.664 119.432 126.528 119.432C117.392 119.432 109.985 126.911 109.985 136.137C109.985 145.363 117.392 152.843 126.528 152.843C135.664 152.843 143.071 145.363 143.071 136.137ZM62.3398 138.659C62.3398 136.263 60.4164 134.32 58.0428 134.32C55.6692 134.32 53.7458 136.263 53.7458 138.659C53.7458 141.056 55.6692 142.999 58.0428 142.999C60.4164 142.999 62.3398 141.056 62.3398 138.659Z" fill="url(#paint0_linear_0_14)"/>
<path id="Vector_2" d="M155.931 136.416C159.158 136.212 166.102 134.941 167.237 132.41C167.541 131.733 167.374 130.585 167.351 129.87L164.748 131.256C161.254 132.595 157.64 133.088 153.892 133.249L148.099 133.032C147.816 130.906 147.223 128.998 146.363 127.028C152.161 127.777 160.087 127.591 165.233 124.983C167.418 123.876 167.645 123.096 167.342 120.725C165.536 121.893 163.819 122.574 161.828 123.1C156.042 124.508 150.114 124.555 144.23 123.441C141.651 119.939 138.283 117.272 134.254 115.799V103.549C134.458 101.886 135.429 100.699 136.693 99.6699C138.588 98.3582 140.653 97.4724 142.983 96.9163C149.287 95.4119 155.898 95.4474 162.198 96.9907C165.447 97.7868 170.424 100.185 170.424 103.404L170.441 142.875C170.442 147.979 163.008 149.704 158.489 150.44C153.45 151.096 148.437 150.94 143.357 149.855C144.505 148.34 145.407 146.88 146.162 145.216C150.633 145.888 155.014 145.837 159.416 145.134C162.091 144.569 166.013 143.771 167.257 141.57C167.464 140.81 167.344 139.868 167.347 138.991C165.754 140.051 164.036 140.766 162.099 141.251C157.317 142.473 152.468 142.64 147.411 142.084C147.903 140.235 148.221 138.364 148.249 136.367C150.857 136.589 153.35 136.609 155.931 136.416ZM162.553 107.697C164.622 107.08 167.392 105.708 167.371 103.994C167.349 102.28 163.934 100.787 161.812 100.226C155.79 98.6388 149.394 98.6404 143.348 100.128C141.088 100.684 137.29 102.239 137.417 104.136C137.53 105.794 140.248 107.07 142.171 107.642C148.792 109.609 155.847 109.695 162.553 107.694V107.697ZM167.366 111.46C165.914 112.527 164.332 113.193 162.553 113.674C158.556 114.755 154.503 115.169 150.359 114.949C145.775 114.706 141.155 114.023 137.444 111.518C137.284 113.843 137.29 114.711 139.297 115.749C141.44 116.857 143.69 117.476 146.097 117.833C152.053 118.712 159.84 118.502 165.255 115.874C167.478 114.795 167.556 113.784 167.364 111.46H167.366Z" fill="url(#paint1_linear_0_14)"/>
<path id="Vector_3" d="M116.746 94.34L108.368 103.884L106.43 97.8694L122.679 78.4946C123.489 77.5294 124.863 77.7762 125.735 78.4337L135.051 85.4622L140.007 79.5663L146.751 71.6774L157.382 59.0251L151.405 54.6893C151.194 54.5355 150.954 54.0588 150.959 53.8222C150.966 53.5517 151.288 53.0581 151.626 52.9533L172.088 46.5824C172.739 46.3795 173.671 46.9526 173.536 47.6845L172.324 54.1366L169.507 68.6483C169.428 69.0573 169.051 69.4765 168.77 69.5864C168.43 69.72 167.777 69.6152 167.526 69.343L162.561 63.9068L148.579 79.6136L136.817 92.8998C136.175 93.532 135.019 93.7365 134.234 93.1331L124.592 85.7225L116.744 94.34H116.746Z" fill="url(#paint2_linear_0_14)"/>
<path id="Vector_4" d="M72.3218 47.2505C73.6308 50.1832 72.5729 54.0744 70.3014 54.1809C69.4075 54.2232 68.5086 53.7735 68.0517 52.8692C67.1277 51.0335 67.1076 48.6856 68.1404 46.8972C68.6007 46.101 69.5113 45.6767 70.3182 45.7291C71.1719 45.7849 71.9335 46.3799 72.3218 47.2505Z" fill="url(#paint3_linear_0_14)"/>
<path id="Vector_5" d="M50.0921 47.0966C51.6237 50.1037 50.4269 54.1842 48.0901 54.1994C45.5173 54.2163 44.389 49.6845 46.1299 46.7957C46.5903 46.0316 47.4523 45.6716 48.2525 45.7257C48.9672 45.7747 49.692 46.3106 50.0938 47.0966H50.0921Z" fill="url(#paint4_linear_0_14)"/>
<path id="Vector_6" d="M63.1604 69.0559C60.4553 67.3487 57.1962 67.4281 54.5899 69.1218C53.9722 69.5225 53.1821 69.2233 52.8607 68.6807C52.5594 68.1685 52.6398 67.352 53.2474 66.9227C56.6471 64.5224 61.2404 64.5528 64.6351 66.9751C65.1925 67.3723 65.2327 68.1871 64.9465 68.7026C64.6602 69.2182 63.8316 69.4802 63.1604 69.0559Z" fill="url(#paint5_linear_0_14)"/>
<path id="Vector_7" d="M49.1949 41.4181C46.746 42.7079 41.3827 44.045 41.3911 41.8238C41.3978 39.8157 44.0443 41.0784 47.7687 39.2866C48.8317 38.7744 49.6703 37.9715 50.4755 37.1314C50.986 36.5989 51.7711 36.768 52.1879 37.2599C53.3496 38.6257 51.063 40.4344 49.1966 41.4165L49.1949 41.4181Z" fill="url(#paint6_linear_0_14)"/>
<path id="Vector_8" d="M67.8725 37.0611C72.1109 40.7529 76.8933 38.3695 76.7979 40.7934C76.7695 41.5186 76.2355 42.0426 75.437 42.0342C73.0299 42.0071 70.74 41.5659 68.5371 40.5737C66.8297 39.8046 64.913 38.3035 65.9325 37.1118C66.5083 36.4391 67.2549 36.5219 67.8742 37.0611H67.8725Z" fill="url(#paint7_linear_0_14)"/>
<path id="Vector_9" d="M58.9405 57.597C59.0928 58.3103 60.303 59.0626 59.6385 59.977C59.297 60.447 58.6207 60.6075 58.0667 60.2745C57.2381 59.7759 56.5903 58.7921 56.5283 57.8049C56.4815 57.0663 57.0657 56.5152 57.6331 56.4611C58.3111 56.3969 58.7814 56.855 58.9405 57.597Z" fill="url(#paint8_linear_0_14)"/>
<path id="Vector_10" d="M128.656 142.679L128.663 146.645C128.663 147.111 128.296 147.532 127.817 147.527L125.071 147.505C124.841 147.503 124.351 147.165 124.352 146.92L124.363 142.667L119.771 142.664C119.406 142.664 119.093 142.267 119.095 141.944L119.1 140.319C119.1 140.057 119.456 139.554 119.754 139.552L124.324 139.544L124.371 137.694L119.721 137.72C119.433 137.72 119.071 137.319 119.083 137.047L119.185 134.672L122.571 134.572L118.079 126.837C117.961 126.636 118.223 126.098 118.412 126.004L122.248 126.031L126.517 133.854L130.834 126.049L134.183 125.992C134.394 125.989 134.861 126.161 134.947 126.347C135.049 126.568 134.876 127.028 134.726 127.283L130.415 134.577L133.358 134.616C133.596 134.62 134.016 135.01 134.008 135.245L133.917 137.66L128.67 137.708L128.638 139.535L133.755 139.567C134.1 140.453 134.142 141.989 133.668 142.64L128.658 142.682L128.656 142.679Z" fill="url(#paint9_linear_0_14)"/>
</g>
<defs>
<linearGradient id="paint0_linear_0_14" x1="42.7589" y1="-1.89972e-06" x2="149.601" y2="39.5358" gradientUnits="userSpaceOnUse">
<stop stop-color="#46B9BD"/>
<stop offset="1" stop-color="#007083"/>
</linearGradient>
<linearGradient id="paint1_linear_0_14" x1="144.833" y1="95.8102" x2="172.802" y2="103.449" gradientUnits="userSpaceOnUse">
<stop stop-color="#46B9BD"/>
<stop offset="1" stop-color="#007083"/>
</linearGradient>
<linearGradient id="paint2_linear_0_14" x1="126.053" y1="46.5411" x2="171.145" y2="68.4595" gradientUnits="userSpaceOnUse">
<stop stop-color="#46B9BD"/>
<stop offset="1" stop-color="#007083"/>
</linearGradient>
<linearGradient id="paint3_linear_0_14" x1="68.9788" y1="45.7248" x2="73.2565" y2="46.8862" gradientUnits="userSpaceOnUse">
<stop stop-color="#46B9BD"/>
<stop offset="1" stop-color="#007083"/>
</linearGradient>
<linearGradient id="paint4_linear_0_14" x1="46.8961" y1="45.7204" x2="51.1448" y2="46.8617" gradientUnits="userSpaceOnUse">
<stop stop-color="#46B9BD"/>
<stop offset="1" stop-color="#007083"/>
</linearGradient>
<linearGradient id="paint5_linear_0_14" x1="56.3247" y1="65.1403" x2="60.3968" y2="70.1861" gradientUnits="userSpaceOnUse">
<stop stop-color="#46B9BD"/>
<stop offset="1" stop-color="#007083"/>
</linearGradient>
<linearGradient id="paint6_linear_0_14" x1="44.6398" y1="36.8035" x2="50.5853" y2="41.2221" gradientUnits="userSpaceOnUse">
<stop stop-color="#46B9BD"/>
<stop offset="1" stop-color="#007083"/>
</linearGradient>
<linearGradient id="paint7_linear_0_14" x1="68.908" y1="36.6319" x2="74.2469" y2="41.2085" gradientUnits="userSpaceOnUse">
<stop stop-color="#46B9BD"/>
<stop offset="1" stop-color="#007083"/>
</linearGradient>
<linearGradient id="paint8_linear_0_14" x1="57.4936" y1="56.4551" x2="59.9522" y2="57.301" gradientUnits="userSpaceOnUse">
<stop stop-color="#46B9BD"/>
<stop offset="1" stop-color="#007083"/>
</linearGradient>
<linearGradient id="paint9_linear_0_14" x1="122.999" y1="125.992" x2="135.704" y2="130.139" gradientUnits="userSpaceOnUse">
<stop stop-color="#46B9BD"/>
<stop offset="1" stop-color="#007083"/>
</linearGradient>
</defs>
</svg>
