<svg preserveAspectRatio="none" width="100%" height="100%" overflow="visible" style="display: block;" viewBox="0 0 173.548 166.825" fill="none" xmlns="http://www.w3.org/2000/svg">
<g id="Group">
<path id="Vector" d="M107.567 150.382L52.9293 150.372C50.095 150.372 48.4089 147.479 48.9486 144.996C49.0743 144.417 49.1061 143.891 48.8765 143.434L45.1221 143.171C40.2296 142.828 35.5047 140.296 34.1873 135.367C33.5772 133.087 33.5269 130.743 34.147 128.466L36.6964 119.084L41.6174 102.886C43.4074 96.9935 45.8881 92.2548 51.8633 89.9561L57.0173 88.3939L66.7168 86.1995C67.7812 85.959 69.0231 85.6496 69.8243 84.9736C70.6255 84.2976 70.5769 83.0667 70.602 82.162C67.2046 83.5241 63.5591 83.5964 60.75 81.4002C57.9894 82.7337 54.8082 82.6261 52.1332 81.0589C51.9304 80.9412 51.741 80.4249 51.8097 80.2164C51.8784 80.0079 52.3058 79.8179 52.6075 79.7876C54.5032 79.606 55.8675 77.9631 56.0351 76.11C53.9048 78.5382 50.7135 79.1503 48.1793 77.4906L47.7468 76.7809C47.6496 76.6229 47.9798 76.1571 48.1675 76.1167C49.6777 76.2328 51.1041 75.4626 51.6907 73.9559C52.2773 72.4492 52.2471 70.7996 51.9404 69.1533C51.1778 65.0536 51.1007 61.0548 51.7778 56.9198C53.0617 49.077 55.1418 40.5093 59.3806 33.8183C62.773 28.4625 67.7191 24.5243 73.8268 22.767C79.3914 21.1678 86.2668 21.4285 90.5173 25.5954C98.7386 25.0456 103.763 33.3021 106.15 40.4707C107.801 45.4279 109 50.3852 109.846 55.5578C110.625 60.3183 110.555 64.9393 109.653 69.6342C109.368 71.1208 109.442 72.5804 109.943 73.9273C110.483 75.3785 111.908 76.2092 113.344 76.0814C113.537 76.0646 113.907 76.2681 113.957 76.4093C114.175 77.0265 113.098 77.9883 111.877 78.2624C109.538 78.7887 107.215 77.9177 105.606 75.9654C105.726 77.8538 107.111 79.5572 109.015 79.7641C109.358 79.8011 109.781 79.9608 109.871 80.1861C109.962 80.4115 109.74 80.9563 109.511 81.0858C106.816 82.616 103.646 82.7169 100.854 81.3986C97.924 83.4366 94.3858 83.6031 91.114 82.1939C91.0285 84.0538 91.5733 85.2864 93.2494 85.6832L100.022 87.2841C103.271 88.0525 106.442 88.6344 109.568 89.7947C113.361 91.2021 116.353 93.8523 118.151 97.4795C119.237 99.6689 119.993 101.868 120.628 104.276L126.753 127.484C128.13 132.703 127.172 138.184 122.554 141.034C120.513 142.293 118.25 143.028 115.85 143.175L111.894 143.413C111.242 143.452 111.462 144.348 111.561 144.695C111.939 146.025 111.757 147.387 110.925 148.566C110.329 149.412 109.115 150.379 107.568 150.379L107.567 150.382ZM65.7497 71.8539C68.1398 76.2344 71.849 79.4984 76.4633 81.1581C79.3596 82.199 82.2592 82.1889 85.1589 81.1581C91.5465 78.888 96.2546 73.5035 97.8653 66.8865C97.986 66.3871 98.3061 65.9398 98.6933 65.7548C99.4693 65.3815 100.331 67.2447 102.894 64.5206C105.198 62.0705 106.063 57.2965 103.706 55.5292C103.308 55.2299 102.066 55.2635 101.925 55.7629L101.093 58.7208C100.995 59.0756 100.48 59.4657 100.182 59.5835C99.8833 59.7012 99.0017 59.4388 98.995 59.0958L98.9766 53.5298C95.0445 51.1588 92.4918 47.1583 90.576 43.0098L88.5798 38.6865C86.9037 43.4706 83.6822 47.8225 79.2322 50.1935C77.8528 50.9284 76.4114 51.3723 74.9297 51.4867L74.6297 52.2232C74.4118 52.7596 71.9395 51.4043 68.6242 52.4939C66.6347 53.1481 64.8061 53.597 62.7412 53.9535L62.773 58.9125C62.7747 59.306 62.0657 59.6995 61.7556 59.6171C61.4774 59.5431 60.8371 59.2707 60.7483 58.9798L59.7493 55.731C58.9767 54.9928 57.7363 55.3711 57.2017 56.338C55.7871 59.2253 57.0559 63.4763 59.7141 65.3748C60.2874 65.7834 61.1472 66.2711 61.7858 65.9802C64.2865 64.8418 63.3747 67.4902 65.7531 71.8506L65.7497 71.8539ZM74.3967 50.6846C76.3845 48.9895 78.0087 47.0002 78.8886 44.4173C76.9846 46.6521 74.9934 48.4783 72.5848 50.1128L74.395 50.6846H74.3967ZM99.7777 90.015L92.7147 88.251C91.2498 87.8844 90.0396 87.089 89.2402 85.8161C88.7776 84.7213 88.5831 83.5661 88.4993 82.3772C83.1593 85.2107 78.4176 85.1468 73.1966 82.4512L72.9301 84.3985C72.4625 87.807 68.7985 88.3502 65.6559 89.1456L62.0137 90.0671C65.2536 92.1691 68.7282 93.4504 72.5027 94.234C81.1111 96.0215 92.1968 95.0059 99.7794 90.015H99.7777ZM113.743 126.688C115.736 126.478 117.06 126.603 118.575 127.137C118.939 127.445 119.215 127.956 119.215 128.378C119.215 128.725 118.639 129.357 118.247 129.271C116.604 128.908 115.042 128.913 113.419 129.381L112.105 140.489C114.559 140.585 116.921 140.345 119.212 139.561C124.299 137.822 125.372 133.045 124.089 127.987L122.12 120.216L117.683 103.688C117.186 101.831 116.49 100.19 115.635 98.4968C114.133 95.5221 111.616 93.3798 108.47 92.2363L102.845 90.6809C96.8027 95.6819 88.1507 97.6241 80.3954 97.5955C74.3716 97.5736 68.5974 96.3192 63.2607 93.5984C61.6232 92.7643 60.2103 91.8479 58.8426 90.7145L53.0785 92.3271C49.495 93.627 46.9775 96.2687 45.5629 99.79L43.0069 107.3L37.1573 127.282C36.6528 129.004 36.3595 130.696 36.4232 132.419C36.5573 136.063 38.9205 138.833 42.3565 139.788C44.3729 140.348 46.3909 140.55 48.5095 140.504L47.2625 129.345C45.6785 128.917 44.2036 128.901 42.6431 129.238C42.2057 129.332 41.6408 128.88 41.5587 128.515C41.1514 126.729 44.4868 126.369 46.9289 126.695L45.0081 108.679C44.7181 105.955 46.8702 103.624 49.6073 103.624L111.172 103.629C114.097 103.629 116.058 106.229 115.744 109.005L113.746 126.687L113.743 126.688ZM108.076 142.853C108.684 142.853 108.996 142.514 109.047 142.085L110.667 128.135L112.903 108.342C113.002 107.466 112.191 106.659 111.329 106.659H49.4581C48.4793 106.659 47.7066 107.55 47.8072 108.452L50.9264 136.522L51.5248 142.186C51.5616 142.532 51.9153 142.853 52.3511 142.853H108.078H108.076ZM107.65 147.414C108.693 147.187 109.083 146.346 108.765 145.534L51.7611 145.547C51.4778 146.434 52.0175 147.417 52.993 147.417L107.65 147.414Z" fill="url(#paint0_linear_0_48)"/>
<path id="Vector_2" d="M173.46 143.02C173.452 146.024 170.804 148.582 168.02 148.606L158.922 148.678L136.151 148.589C133.355 148.579 130.767 145.823 130.769 143.028L130.774 112.845C130.774 109.896 133.429 107.579 136.141 107.382L140.508 107.316L140.584 104.678C140.609 103.814 141.574 103.292 142.282 103.279C142.989 103.265 144.04 103.694 144.073 104.558L144.182 107.321L159.928 107.325L160.001 104.831C160.03 103.849 161.046 103.255 161.855 103.282C162.722 103.311 163.566 103.987 163.583 104.97L163.625 107.315L168.07 107.385C171.454 107.685 173.558 110.422 173.548 113.713L173.459 143.02H173.46ZM163.551 112.894C163.513 113.905 162.464 114.45 161.706 114.434C160.856 114.418 160.025 113.812 159.983 112.845L159.886 110.605L144.179 110.609L144.156 112.681C144.144 113.678 143.296 114.36 142.428 114.433C141.646 114.498 140.612 113.935 140.582 112.992L140.505 110.617L136.669 110.607C134.984 110.604 133.863 111.91 133.874 113.531L133.903 117.781L170.371 117.771L170.432 113.531C170.455 111.936 169.294 110.604 167.648 110.605L163.642 110.612L163.553 112.892L163.551 112.894ZM170.38 142.675L170.447 126.648L170.413 120.09L133.888 120.093L133.895 142.707C133.895 144.138 135.024 145.217 136.35 145.458H167.465C168.989 145.458 170.375 144.358 170.381 142.675H170.38Z" fill="url(#paint1_linear_0_48)"/>
<path id="Vector_3" d="M143.936 87.5008C143.576 86.7004 144.301 85.8411 144.786 85.6074C145.43 85.2946 146.62 85.2828 146.975 86.0244L148.984 90.2166C150.828 81.432 150.674 72.6777 148.865 64.0092C148.051 60.1063 147.05 56.5111 145.602 52.783C142.387 44.5063 137.584 36.9493 131.541 30.4685C123.892 22.2641 114.534 16.128 103.961 12.405C97.7397 10.2156 91.4124 8.64163 84.6477 8.29859L87.1669 10.2879C87.8809 10.8512 87.8993 11.8097 87.4719 12.5362C87.135 13.1096 86.0959 13.7873 85.3416 13.2676L76.0125 6.84907C75.4728 6.47744 75.265 5.76613 75.4141 5.12713C75.5415 4.58399 76.0527 4.1535 76.6762 3.91808L86.5115 0.201798C87.4384 -0.14797 88.3569 -0.0891148 88.9084 0.746629C89.3492 1.41421 89.4229 2.79647 88.4944 3.18996L84.988 4.67479C93.6115 5.31715 101.689 7.39558 109.518 10.7234C132.287 20.4009 148.72 41.4105 152.831 65.8707C154.192 73.9726 153.917 82.066 152.61 90.2149L154.881 87.6135C155.563 86.8316 156.708 86.7778 157.393 87.4285C158.186 88.1819 158.148 89.1925 157.429 90.0114L151.16 97.1464C150.656 97.7198 150.124 98.0191 149.333 97.9115C148.602 97.8123 148.297 97.1867 147.969 96.4569L143.938 87.4992L143.936 87.5008Z" fill="url(#paint2_linear_0_48)"/>
<path id="Vector_4" d="M47.2826 24.9968C47.2826 38.0963 36.6981 48.7154 23.6413 48.7154C10.5846 48.7154 4.99207e-05 38.0963 4.99207e-05 24.9968C4.99207e-05 11.8973 10.5846 1.27816 23.6413 1.27816C36.6981 1.27816 47.2826 11.8973 47.2826 24.9968ZM43.7393 25.0035C43.7393 13.8614 34.7354 4.82797 23.6296 4.82797C12.5238 4.82797 3.51984 13.8614 3.51984 25.0035C3.51984 36.1456 12.5238 45.1791 23.6296 45.1791C34.7354 45.1791 43.7393 36.1456 43.7393 25.0035Z" fill="url(#paint3_linear_0_48)"/>
<path id="Vector_5" d="M32.1508 125.763C32.7827 126.384 31.4301 128.071 30.3842 128.224C30.0054 128.279 29.4556 127.986 29.102 127.645C23.4988 122.239 18.794 115.899 15.415 108.835C10.0834 97.6878 7.82064 85.5535 8.70896 73.2007C9.09614 67.8129 10.2627 62.6774 11.8366 57.5637C12.3561 57.1063 13.0769 56.9651 13.7154 57.1517C14.1864 57.2913 15.0194 57.7537 15.0614 58.4448C14.2032 61.5474 13.459 64.4817 12.8992 67.6952C11.2583 77.1103 11.855 86.7138 14.3239 95.9575C17.1481 106.524 22.5786 116.098 30.2149 123.86L32.1508 125.763Z" fill="url(#paint4_linear_0_48)"/>
<path id="Vector_6" d="M101.415 161.671L92.0643 163.221C84.1029 164.097 76.242 163.594 68.3007 161.864L69.1555 158.447C79.2339 160.684 90.3095 160.806 100.378 158.158L97.1295 156.881C96.3652 156.58 96.3132 155.398 96.6082 154.766C96.8848 154.172 97.6223 153.426 98.4469 153.688L109.276 157.125C109.705 157.262 109.97 158.084 109.955 158.454C109.935 158.94 109.648 159.429 109.231 159.777L101.082 166.542C100.391 167.116 99.4274 166.717 98.9581 166.221C98.4368 165.671 98.1737 164.566 98.8357 163.974L101.415 161.669V161.671Z" fill="url(#paint5_linear_0_48)"/>
<path id="Vector_7" d="M80.3603 129.415C82.7735 129.415 84.7299 127.452 84.7299 125.031C84.7299 122.61 82.7735 120.647 80.3603 120.647C77.947 120.647 75.9907 122.61 75.9907 125.031C75.9907 127.452 77.947 129.415 80.3603 129.415Z" fill="url(#paint6_linear_0_48)"/>
<path id="Vector_8" d="M73.8436 57.7654C74.8996 59.8842 74.1218 63.0288 72.1038 63.0288C71.3412 63.0288 70.6574 62.5512 70.3188 61.7794C69.3869 59.6589 70.054 56.8254 71.9362 56.6825C72.7005 56.6253 73.4698 57.0171 73.8436 57.7671V57.7654Z" fill="url(#paint7_linear_0_48)"/>
<path id="Vector_9" d="M91.3001 57.9036C92.2286 60.083 91.518 62.9467 89.5134 63.0308C87.5088 63.1148 86.7042 59.9451 87.7669 57.7557C88.0987 57.0729 88.8513 56.6357 89.5134 56.6441C90.276 56.6542 90.9816 57.152 91.3018 57.9036H91.3001Z" fill="url(#paint8_linear_0_48)"/>
<path id="Vector_10" d="M84.4717 72.2006C84.9544 71.8626 85.4388 71.7583 85.8042 72.0543C86.1964 72.3721 86.2299 73.0683 85.8075 73.4298C82.9465 75.8832 78.768 75.9623 75.9136 73.5122C75.4862 73.1456 75.4493 72.515 75.746 72.1787C76.1885 71.6776 76.6728 71.8508 77.1991 72.2258C79.3194 73.7409 82.2827 73.7308 84.4734 72.1972L84.4717 72.2006Z" fill="url(#paint9_linear_0_48)"/>
<path id="Vector_11" d="M94.2214 53.748C92.3777 52.1623 90.1502 51.7386 87.9009 52.3624C87.4701 52.4818 86.9572 52.2901 86.8081 51.9C86.1695 50.2285 91.4073 49.08 94.8131 52.1606C94.979 52.3103 95.1399 52.8871 95.0963 53.1023C95.0461 53.3478 94.6203 53.632 94.2198 53.748H94.2214Z" fill="url(#paint10_linear_0_48)"/>
<path id="Vector_12" d="M81.4245 68.0872C80.5144 68.59 79.5289 68.3361 78.9221 67.5945C78.6975 67.3187 78.7009 66.6747 78.8752 66.4023C79.0813 66.0811 79.616 65.9096 79.9747 65.997L81.1413 66.2862C81.3927 66.3485 81.8016 66.6999 81.8821 66.9471C81.9877 67.27 81.7731 67.8938 81.4228 68.0872H81.4245Z" fill="url(#paint11_linear_0_48)"/>
<path id="Vector_13" d="M154.35 140.552H149.864C149.636 140.552 149.154 140.185 149.152 139.951L149.14 135.171C149.14 134.843 149.538 134.476 149.858 134.474L154.286 134.463C154.633 134.463 155.06 134.844 155.062 135.203L155.084 139.765C155.084 140.088 154.742 140.552 154.35 140.552Z" fill="url(#paint12_linear_0_48)"/>
<path id="Vector_14" d="M144.62 130.809L140.001 130.816C139.655 130.816 139.323 130.372 139.322 130.029L139.315 125.603C139.315 125.135 139.65 124.705 140.163 124.708L144.576 124.735C144.866 124.737 145.227 125.129 145.227 125.453V130.177C145.228 130.373 144.828 130.809 144.622 130.809H144.62Z" fill="url(#paint13_linear_0_48)"/>
<path id="Vector_15" d="M164.232 130.805L159.912 130.813C159.762 130.813 159.443 130.761 159.326 130.692C159.18 130.607 159.049 130.205 159.051 130.028L159.143 124.807L163.662 124.728C163.893 124.622 164.922 124.825 164.927 125.157L164.986 130.013C164.991 130.366 164.621 130.803 164.232 130.805Z" fill="url(#paint14_linear_0_48)"/>
<path id="Vector_16" d="M144.655 140.555L139.979 140.548C139.731 140.548 139.327 140.21 139.325 139.944L139.315 135.174C139.315 134.883 139.672 134.452 139.967 134.454L144.573 134.471C144.848 134.471 145.222 134.891 145.222 135.179L145.227 139.885C145.227 140.117 144.849 140.555 144.655 140.555Z" fill="url(#paint15_linear_0_48)"/>
<path id="Vector_17" d="M154.355 130.812L149.859 130.832C149.63 130.832 149.162 130.437 149.162 130.203L149.144 125.586C149.144 125.268 149.524 124.726 149.864 124.726L154.454 124.723C154.69 124.723 155.075 125.197 155.075 125.431L155.08 130.016C155.08 130.329 154.727 130.808 154.356 130.81L154.355 130.812Z" fill="url(#paint16_linear_0_48)"/>
<path id="Vector_18" d="M164.239 140.556L159.916 140.546C159.455 140.546 159.023 140.29 159.028 139.761L159.074 135.172C159.078 134.803 159.534 134.467 159.909 134.469L164.334 134.479C164.564 134.479 164.976 134.941 164.976 135.175L164.963 139.917C164.963 140.149 164.513 140.558 164.239 140.556Z" fill="url(#paint17_linear_0_48)"/>
<path id="Vector_19" d="M31.4888 33.2779L22.7865 26.671C22.1899 26.2169 21.8463 25.7545 21.8463 24.9558V14.7536C21.8463 13.6858 22.572 12.9644 23.5425 12.9476C24.5129 12.9308 25.2705 13.6926 25.2688 14.7318L25.2621 24.1267L33.066 30.1148C33.8689 30.7303 34.3465 31.4214 33.8571 32.5094C33.5722 33.1417 32.404 33.974 31.4888 33.2779Z" fill="url(#paint18_linear_0_48)"/>
<path id="Vector_20" d="M23.5743 11.1703C24.6221 11.1703 25.4716 10.3181 25.4716 9.2668C25.4716 8.2155 24.6221 7.36325 23.5743 7.36325C22.5264 7.36325 21.6769 8.2155 21.6769 9.2668C21.6769 10.3181 22.5264 11.1703 23.5743 11.1703Z" fill="url(#paint19_linear_0_48)"/>
<path id="Vector_21" d="M39.3328 26.9305C40.3807 26.9305 41.2302 26.0783 41.2302 25.027C41.2302 23.9757 40.3807 23.1234 39.3328 23.1234C38.285 23.1234 37.4355 23.9757 37.4355 25.027C37.4355 26.0783 38.285 26.9305 39.3328 26.9305Z" fill="url(#paint20_linear_0_48)"/>
<path id="Vector_22" d="M7.89771 26.9256C8.94187 26.9256 9.78834 26.0764 9.78834 25.0288C9.78834 23.9812 8.94187 23.132 7.89771 23.132C6.85354 23.132 6.00707 23.9812 6.00707 25.0288C6.00707 26.0764 6.85354 26.9256 7.89771 26.9256Z" fill="url(#paint21_linear_0_48)"/>
<path id="Vector_23" d="M23.5843 42.65C24.6266 42.65 25.4716 41.8023 25.4716 40.7566C25.4716 39.7108 24.6266 38.8631 23.5843 38.8631C22.542 38.8631 21.697 39.7108 21.697 40.7566C21.697 41.8023 22.542 42.65 23.5843 42.65Z" fill="url(#paint22_linear_0_48)"/>
</g>
<defs>
<linearGradient id="paint0_linear_0_48" x1="61.078" y1="21.8585" x2="132.32" y2="43.4107" gradientUnits="userSpaceOnUse">
<stop stop-color="#46B9BD"/>
<stop offset="1" stop-color="#007083"/>
</linearGradient>
<linearGradient id="paint1_linear_0_48" x1="143.276" y1="103.279" x2="174.088" y2="115.336" gradientUnits="userSpaceOnUse">
<stop stop-color="#46B9BD"/>
<stop offset="1" stop-color="#007083"/>
</linearGradient>
<linearGradient id="paint2_linear_0_48" x1="99.5194" y1="1.6951e-05" x2="160.633" y2="21.4083" gradientUnits="userSpaceOnUse">
<stop stop-color="#46B9BD"/>
<stop offset="1" stop-color="#007083"/>
</linearGradient>
<linearGradient id="paint3_linear_0_48" x1="13.8236" y1="1.27816" x2="47.3502" y2="15.1556" gradientUnits="userSpaceOnUse">
<stop stop-color="#46B9BD"/>
<stop offset="1" stop-color="#007083"/>
</linearGradient>
<linearGradient id="paint4_linear_0_48" x1="15.4766" y1="57.0718" x2="34.8631" y2="59.7635" gradientUnits="userSpaceOnUse">
<stop stop-color="#46B9BD"/>
<stop offset="1" stop-color="#007083"/>
</linearGradient>
<linearGradient id="paint5_linear_0_48" x1="80.479" y1="153.634" x2="93.199" y2="170.316" gradientUnits="userSpaceOnUse">
<stop stop-color="#46B9BD"/>
<stop offset="1" stop-color="#007083"/>
</linearGradient>
<linearGradient id="paint6_linear_0_48" x1="78.5457" y1="120.647" x2="84.7424" y2="123.212" gradientUnits="userSpaceOnUse">
<stop stop-color="#46B9BD"/>
<stop offset="1" stop-color="#007083"/>
</linearGradient>
<linearGradient id="paint7_linear_0_48" x1="71.1918" y1="56.677" x2="74.5757" y2="57.6535" gradientUnits="userSpaceOnUse">
<stop stop-color="#46B9BD"/>
<stop offset="1" stop-color="#007083"/>
</linearGradient>
<linearGradient id="paint8_linear_0_48" x1="88.5848" y1="56.644" x2="91.9669" y2="57.6127" gradientUnits="userSpaceOnUse">
<stop stop-color="#46B9BD"/>
<stop offset="1" stop-color="#007083"/>
</linearGradient>
<linearGradient id="paint9_linear_0_48" x1="78.6398" y1="71.8686" x2="81.9829" y2="76.1279" gradientUnits="userSpaceOnUse">
<stop stop-color="#46B9BD"/>
<stop offset="1" stop-color="#007083"/>
</linearGradient>
<linearGradient id="paint10_linear_0_48" x1="89.1956" y1="50.2331" x2="92.7102" y2="53.6998" gradientUnits="userSpaceOnUse">
<stop stop-color="#46B9BD"/>
<stop offset="1" stop-color="#007083"/>
</linearGradient>
<linearGradient id="paint11_linear_0_48" x1="79.6726" y1="65.9743" x2="81.6832" y2="67.0857" gradientUnits="userSpaceOnUse">
<stop stop-color="#46B9BD"/>
<stop offset="1" stop-color="#007083"/>
</linearGradient>
<linearGradient id="paint12_linear_0_48" x1="150.878" y1="134.463" x2="155.118" y2="136.181" gradientUnits="userSpaceOnUse">
<stop stop-color="#46B9BD"/>
<stop offset="1" stop-color="#007083"/>
</linearGradient>
<linearGradient id="paint13_linear_0_48" x1="141.043" y1="124.708" x2="145.27" y2="126.407" gradientUnits="userSpaceOnUse">
<stop stop-color="#46B9BD"/>
<stop offset="1" stop-color="#007083"/>
</linearGradient>
<linearGradient id="paint14_linear_0_48" x1="160.786" y1="124.7" x2="165.026" y2="126.409" gradientUnits="userSpaceOnUse">
<stop stop-color="#46B9BD"/>
<stop offset="1" stop-color="#007083"/>
</linearGradient>
<linearGradient id="paint15_linear_0_48" x1="141.043" y1="134.454" x2="145.269" y2="136.154" gradientUnits="userSpaceOnUse">
<stop stop-color="#46B9BD"/>
<stop offset="1" stop-color="#007083"/>
</linearGradient>
<linearGradient id="paint16_linear_0_48" x1="150.879" y1="124.723" x2="155.12" y2="126.434" gradientUnits="userSpaceOnUse">
<stop stop-color="#46B9BD"/>
<stop offset="1" stop-color="#007083"/>
</linearGradient>
<linearGradient id="paint17_linear_0_48" x1="160.767" y1="134.469" x2="165.009" y2="136.19" gradientUnits="userSpaceOnUse">
<stop stop-color="#46B9BD"/>
<stop offset="1" stop-color="#007083"/>
</linearGradient>
<linearGradient id="paint18_linear_0_48" x1="25.4156" y1="12.9473" x2="34.9761" y2="15.301" gradientUnits="userSpaceOnUse">
<stop stop-color="#46B9BD"/>
<stop offset="1" stop-color="#007083"/>
</linearGradient>
<linearGradient id="paint19_linear_0_48" x1="22.7864" y1="7.36325" x2="25.477" y2="8.47699" gradientUnits="userSpaceOnUse">
<stop stop-color="#46B9BD"/>
<stop offset="1" stop-color="#007083"/>
</linearGradient>
<linearGradient id="paint20_linear_0_48" x1="38.5449" y1="23.1234" x2="41.2356" y2="24.2372" gradientUnits="userSpaceOnUse">
<stop stop-color="#46B9BD"/>
<stop offset="1" stop-color="#007083"/>
</linearGradient>
<linearGradient id="paint21_linear_0_48" x1="7.11257" y1="23.132" x2="9.79375" y2="24.2418" gradientUnits="userSpaceOnUse">
<stop stop-color="#46B9BD"/>
<stop offset="1" stop-color="#007083"/>
</linearGradient>
<linearGradient id="paint22_linear_0_48" x1="22.8006" y1="38.8631" x2="25.477" y2="39.971" gradientUnits="userSpaceOnUse">
<stop stop-color="#46B9BD"/>
<stop offset="1" stop-color="#007083"/>
</linearGradient>
</defs>
</svg>
