<svg preserveAspectRatio="none" width="100%" height="100%" overflow="visible" style="display: block;" viewBox="0 0 43.872 43.2377" fill="none" xmlns="http://www.w3.org/2000/svg">
<path id="Vector" d="M23.3687 42.6578C22.3959 42.1906 21.5911 42.1958 20.6981 42.6254C18.1023 43.8753 15.1178 43.1284 13.4676 40.7584C12.9736 40.0491 12.2164 39.6978 11.32 39.6586C8.65287 39.5392 6.50017 37.8342 5.97558 35.176C5.84486 34.511 5.44928 34.0506 4.82113 33.7863C2.00292 32.5996 0.651546 29.5987 1.55643 26.6881C1.85523 25.7264 1.6549 24.862 1.10144 24.0725C-0.587784 21.6616 -0.311053 18.543 1.77374 16.485C2.46301 15.8046 2.73295 15.0373 2.55808 14.0638C2.03009 11.143 3.85004 8.4353 6.66824 7.60834C7.55615 7.34747 8.12998 6.83083 8.44575 5.96806C9.42364 3.28598 12.0806 1.74118 14.9191 2.19132C16.0906 2.37718 16.9632 2.26293 17.8816 1.49565C20.2805 -0.509516 23.7048 -0.507803 26.0409 1.55704C26.7658 2.19815 27.6486 2.36012 28.5772 2.19985C31.864 1.63035 34.6754 3.39852 35.711 6.54267C35.8927 7.09171 36.896 7.4958 37.4104 7.66631C40.2422 8.60751 41.8109 11.1873 41.339 14.1609C41.232 14.8293 41.3576 15.6972 41.8635 16.1627C44.1351 18.2463 44.5375 21.5695 42.7752 24.1203C42.2201 24.9234 42.0554 25.7725 42.3525 26.7359C43.2285 29.5782 41.9841 32.4649 39.2643 33.6994C38.5683 34.0148 38.0827 34.4667 37.9147 35.2578C37.3595 37.8887 35.1898 39.5853 32.5142 39.6825C31.5686 39.7166 30.9286 40.0917 30.421 40.8164C28.82 43.1063 25.9339 43.8889 23.372 42.6578H23.3687ZM38.0573 21.7929C38.0573 12.8651 30.8505 5.62705 21.9612 5.62705C13.072 5.62705 5.86523 12.8651 5.86523 21.7929C5.86523 30.7206 13.072 37.9587 21.9612 37.9587C30.8505 37.9587 38.0573 30.7206 38.0573 21.7929Z" fill="url(#paint0_linear_0_14)"/>
<defs>
<linearGradient id="paint0_linear_0_14" x1="12.8265" y1="-5.04354e-07" x2="43.7704" y2="13.0389" gradientUnits="userSpaceOnUse">
<stop stop-color="#46B9BD"/>
<stop offset="1" stop-color="#007083"/>
</linearGradient>
</defs>
</svg>
