<svg preserveAspectRatio="none" width="100%" height="100%" overflow="visible" style="display: block;" viewBox="0 0 231.639 162.731" fill="none" xmlns="http://www.w3.org/2000/svg">
<g id="radious02" style="mix-blend-mode:overlay" opacity="0.4">
<path id="Vector" d="M115.881 81.0169L115.846 81.0312L113.026 0.0238904C113.966 0.00955703 114.911 0 115.856 0C117.644 0 119.422 0.0334457 121.19 0.0907791L115.881 81.0217V81.0169ZM116.03 81.0217L115.861 81.3848L116.065 81.1124L116.03 81.0217ZM115.846 81.0456L115.856 81.3848L115.881 81.0265L115.846 81.0456ZM115.846 81.0312L115.83 81.0408V81.0551L115.851 81.0456V81.0312H115.846ZM116.076 81.1459L115.861 81.3896L116.091 81.1889L116.076 81.1507V81.1459ZM115.897 81.0217L115.861 81.3896L115.973 80.9835L115.897 81.0265V81.0217ZM116.198 81.4708L115.856 81.3848L116.214 81.5233L116.193 81.4708H116.198ZM116.29 81.7049L115.861 81.3848L116.515 82.2926L116.29 81.7001V81.7049ZM116.168 81.3944L115.856 81.3848L116.183 81.4326L116.168 81.3896V81.3944ZM116.147 81.3322L115.861 81.3848L116.157 81.3513L116.147 81.3275V81.3322ZM116.096 81.2032L115.856 81.3848L116.106 81.2319L116.096 81.1985V81.2032ZM116.127 81.2845L115.856 81.3848L116.137 81.3131L116.127 81.2845ZM115.457 81.251L115.861 81.3896L115.503 81.2319L115.457 81.2558V81.251ZM22.5718 129.65C23.1848 130.233 23.803 130.811 24.4365 131.38L115.856 81.3896L114.318 81.8435L22.5718 129.65ZM114.865 81.5568L115.856 81.3848L114.993 81.4899L114.865 81.5568ZM115.156 81.4087L115.861 81.3896L115.284 81.3418L115.151 81.4087H115.156ZM52.6225 149.583L115.861 81.3848L40.5092 143.205C44.3358 145.512 48.3821 147.643 52.6225 149.583ZM100.57 0.702335L115.795 81.0504L115.825 81.036L108.862 0.143335C106.067 0.258002 103.298 0.444337 100.565 0.69756L100.57 0.702335ZM112.249 162.731L115.856 81.3848L90.5156 160.815C97.5404 161.919 104.805 162.569 112.249 162.731ZM77.4622 158.192L115.856 81.3848L61.8135 153.386C66.8254 155.245 72.0519 156.855 77.4622 158.192ZM116.985 83.5348L115.861 81.3848L133.002 161.886C137.446 161.422 141.809 160.777 146.075 159.97L116.985 83.53V83.5348ZM115.8 81.0695L115.861 81.3848L115.83 81.0504L115.8 81.0647V81.0695ZM115.662 81.1411L115.856 81.3848L115.718 81.1077L115.662 81.1363V81.1411ZM115.585 81.1793L115.856 81.3848L115.606 81.1698L115.585 81.1793ZM115.555 81.1985L115.861 81.3848L115.56 81.1937L115.555 81.1985ZM116.178 81.3275L116.188 81.3513L116.316 81.337L116.29 81.3083L116.178 81.3322V81.3275ZM116.137 81.0742L116.178 81.1077L188.193 17.8116C184.663 15.824 180.959 13.9846 177.107 12.2932L116.137 81.0742ZM115.161 81.3275L0.802547 71.8483C0.281435 74.9778 0.00555295 78.1598 0.00555295 81.3896C0.00555295 82.5028 0.0464229 83.6065 0.10773 84.7101L114.967 81.4182L115.161 81.337V81.3275ZM116.04 80.993L116.106 81.0504L169.878 9.36924C164.089 7.22401 158.015 5.40845 151.7 3.96556L116.04 80.9882V80.993ZM115.897 81.0121L115.973 80.9787L138.218 1.51934C133.512 0.874338 128.705 0.425225 123.816 0.195891L115.897 81.0169V81.0121ZM116.27 81.2797L116.239 81.2415L116.152 81.2749L116.168 81.3036L116.27 81.2797ZM116.193 81.1841L116.168 81.1507L116.116 81.1889L116.132 81.2223L116.193 81.1841ZM116.306 81.2223L116.352 81.2606L224.881 53.7931C223.057 50.2384 220.891 46.7984 218.413 43.497L116.306 81.2223ZM116.985 81.8196L217.549 120.405C220.405 116.74 222.868 112.904 224.901 108.924L116.745 81.6093L116.985 81.8196ZM116.51 81.4039L116.622 81.5042L229.147 98.4702C230.547 93.8691 231.39 89.1248 231.63 84.2754L116.51 81.4087V81.4039ZM119.494 88.3317L152.753 158.56C153.795 158.317 154.832 158.059 155.859 157.796L119.494 88.3365V88.3317ZM120.081 84.519L188.878 144.571C191.157 143.271 193.364 141.91 195.494 140.496L120.086 84.5142L120.081 84.519ZM117.174 82.3642L116.392 81.7861L116.873 82.8038L168.069 154.06C170.384 153.238 172.652 152.359 174.869 151.437L117.169 82.369L117.174 82.3642ZM116.193 81.1268L116.229 81.1602L203.806 28.4135C200.767 25.9243 197.517 23.564 194.074 21.3519L116.188 81.1268H116.193ZM17.9226 37.8974C15.5827 40.4917 13.4421 43.1864 11.5262 45.9671L115.396 81.2271L115.452 81.2032L17.9226 37.8974ZM9.03816 112.942C11.3116 116.736 13.9836 120.376 17.0132 123.85L113.245 82.1588L9.03816 112.942ZM114.482 81.6237L114.712 81.5233L1.64041 95.0397C2.10022 96.946 2.65199 98.8237 3.29571 100.682L114.487 81.6189L114.482 81.6237ZM115.555 81.1555L115.58 81.1459L42.3638 18.4709C40.4224 19.5937 38.5372 20.7595 36.7031 21.9635L115.56 81.1555H115.555ZM115.519 81.1746H115.524L30.0359 26.7174C29.6732 26.9993 29.3156 27.2859 28.9528 27.5726L115.514 81.1746H115.519ZM116.096 81.0695L116.04 80.9978V81.0121L116.076 81.0981L116.101 81.0647L116.096 81.0695ZM116.147 81.1316L116.116 81.0933L116.086 81.1268L116.106 81.165L116.152 81.1268L116.147 81.1316ZM115.646 81.1172L115.713 81.0886L77.6308 4.5389C71.2957 6.09645 65.2059 8.02668 59.4277 10.2961L115.646 81.1172ZM116.254 81.4851L116.285 81.5472L116.597 81.6667L116.495 81.5425L116.254 81.4803V81.4851ZM116.418 81.3227L230.245 68.437C229.591 65.556 228.718 62.7228 227.64 59.9469L116.377 81.2845L116.418 81.3227ZM116.208 81.3944L116.229 81.4421L116.428 81.4708L116.367 81.3991H116.208V81.3944Z" fill="url(#paint0_radial_0_4)"/>
<path id="Vector_2" d="M49.4852 147.232L115.937 80.0661L60.214 151.914C56.51 150.491 52.9286 148.923 49.4852 147.232ZM5.28265 104.982L115.937 80.0613L2.75883 98.3841C3.47408 100.62 4.31706 102.818 5.28265 104.977V104.982ZM26.9752 132.741L115.937 80.0613L19.5315 125.785C21.8356 128.197 24.3237 130.519 26.9752 132.736V132.741ZM32.6615 23.8077L115.937 80.0661L40.7643 18.4804C37.9441 20.167 35.2415 21.9443 32.6666 23.8077H32.6615ZM21.0999 33.583L115.932 80.0613L28.6612 26.8463C25.979 28.9963 23.45 31.2419 21.0999 33.583ZM0 77.9447L115.937 80.0613L5.02721 56.5737C2.06402 63.3629 0.32697 70.5296 0.00510614 77.9447H0ZM227.711 101.561L115.937 80.0661L212.711 125.087C219.378 117.949 224.492 110.028 227.716 101.566L227.711 101.561ZM157.912 156.324L115.937 80.0613L142.345 159.721C147.684 158.842 152.885 157.7 157.912 156.324ZM133.313 160.949L115.932 80.0613L121.358 161.781C125.399 161.647 129.389 161.37 133.313 160.949ZM193.312 140.964L115.932 80.0613L173.3 151.15C180.489 148.255 187.197 144.834 193.312 140.964ZM94.1731 160.457L115.932 80.0661L84.9311 158.957C87.9658 159.545 91.0465 160.046 94.1731 160.462V160.457ZM73.7885 156.358L115.932 80.0613L68.9145 154.934C70.5187 155.436 72.1434 155.909 73.7834 156.358H73.7885ZM104.636 161.499L115.932 80.0613L100.953 161.212C102.174 161.322 103.405 161.413 104.636 161.499ZM10.0238 113.745L115.932 80.0613L9.26762 112.531C9.51285 112.937 9.7632 113.339 10.0238 113.745ZM117.7 76.8745L117.71 77.2758L163.052 6.15851C161.294 5.60429 159.511 5.08351 157.708 4.5914L117.695 76.8745H117.7ZM117.73 78.0021L117.746 78.4751L188.05 16.8751C184.285 14.7633 180.33 12.8092 176.202 11.0319L117.725 78.0021H117.73ZM117.766 79.0723L207.428 30.6924C204.24 27.8019 200.781 25.0642 197.077 22.5033L117.756 78.7713L117.766 79.0771V79.0723ZM117.628 74.5955L117.669 75.8568L147.96 2.27896C145.487 1.77729 142.974 1.33295 140.435 0.945949L117.628 74.5955ZM117.797 80.0613L117.756 79.6408L115.937 80.0613L231.241 87.2423C231.502 85.0159 231.639 82.7607 231.639 80.4865C231.639 71.4899 229.56 62.8374 225.723 54.7486L117.787 79.6361L117.802 80.0613H117.797ZM117.598 78.155L115.932 80.0613L117.639 78.5658L117.598 78.155ZM117.332 75.5511L115.937 80.0613L117.424 76.4445L117.332 75.5511ZM117.669 78.8334L115.932 80.0661L117.695 79.1153L117.664 78.8382L117.669 78.8334ZM71.7704 5.18385L115.937 80.0613L89.7539 1.16096C83.5517 2.15951 77.5486 3.5164 71.7704 5.18385ZM43.4107 16.9372L115.937 80.0613L58.104 9.88519C52.9389 11.9731 48.0343 14.3333 43.4107 16.9372ZM117.506 77.2281L115.937 80.0661L117.541 77.553L117.511 77.2328L117.506 77.2281Z" fill="url(#paint1_radial_0_4)"/>
</g>
<defs>
<radialGradient id="paint0_radial_0_4" cx="0" cy="0" r="1" gradientUnits="userSpaceOnUse" gradientTransform="translate(115.82 81.3657) scale(102.429 95.7898)">
<stop stop-color="white"/>
<stop offset="0.03" stop-color="white" stop-opacity="0.93"/>
<stop offset="0.14" stop-color="white" stop-opacity="0.71"/>
<stop offset="0.26" stop-color="white" stop-opacity="0.52"/>
<stop offset="0.37" stop-color="white" stop-opacity="0.36"/>
<stop offset="0.49" stop-color="white" stop-opacity="0.23"/>
<stop offset="0.61" stop-color="white" stop-opacity="0.13"/>
<stop offset="0.73" stop-color="white" stop-opacity="0.06"/>
<stop offset="0.86" stop-color="white" stop-opacity="0.01"/>
<stop offset="1" stop-color="white" stop-opacity="0"/>
</radialGradient>
<radialGradient id="paint1_radial_0_4" cx="0" cy="0" r="1" gradientUnits="userSpaceOnUse" gradientTransform="translate(115.82 81.3656) scale(102 95.3885)">
<stop stop-color="white"/>
<stop offset="0.12" stop-color="white" stop-opacity="0.77"/>
<stop offset="0.25" stop-color="white" stop-opacity="0.56"/>
<stop offset="0.37" stop-color="white" stop-opacity="0.39"/>
<stop offset="0.5" stop-color="white" stop-opacity="0.25"/>
<stop offset="0.62" stop-color="white" stop-opacity="0.14"/>
<stop offset="0.75" stop-color="white" stop-opacity="0.06"/>
<stop offset="0.87" stop-color="white" stop-opacity="0.02"/>
<stop offset="1" stop-color="white" stop-opacity="0"/>
</radialGradient>
</defs>
</svg>
