<svg preserveAspectRatio="none" width="100%" height="100%" overflow="visible" style="display: block;" viewBox="0 0 105.509 155.945" fill="none" xmlns="http://www.w3.org/2000/svg">
<path id="Vector" d="M53.8396 146.247L49.7583 132.767C46.4087 121.701 43.4666 110.671 40.9726 99.392L39.7757 93.1787L36.365 95.2418L30.6658 105.273L37.657 108.337C38.1035 108.533 38.5279 108.957 38.6077 109.362C38.7164 109.909 38.4532 110.487 38.0101 110.833L32.8117 114.886L35.6792 119.856C33.9645 118.814 32.3873 118.218 30.5504 118.306L28.7983 115.365C28.25 114.444 28.3943 113.549 29.2312 112.917L32.81 110.217L27.1481 107.805C26.1906 107.396 25.9156 106.349 26.3978 105.482L30.8526 97.472L24.8325 99.3084L12.1404 103.073C8.64985 104.108 5.7179 106.067 4.22901 109.498C2.81311 109.457 1.4855 109.689 0 110.347C0.926952 106.28 3.59236 103.017 7.22038 101.034C9.09126 100.011 10.9723 99.4533 13.0317 98.8395L29.8526 93.8215L33.8677 92.3619L39.1748 89.1837C40.2969 88.5119 41.3767 88.0004 42.6228 87.5195L42.5906 82.568C38.3089 86.9432 31.5809 89.3065 25.8409 87.8981C26.6779 87.0575 27.3196 86.4692 27.8052 85.4956C23.9089 87.1103 19.4881 87.037 16.057 84.3873C18.9533 83.6269 21.3029 82.1349 22.2299 79.3045C17.242 82.3361 11.0097 80.868 8.23561 75.8483C8.14224 75.6812 8.09979 75.2839 8.1728 75.1305C8.25938 74.9463 8.78907 74.9617 8.99958 75.035C12.0504 76.1024 15.2608 75.0162 16.8243 72.1773C18.6884 68.7927 18.539 64.721 18.2284 60.8454L17.7207 54.5178C16.7853 42.8347 18.6409 29.559 24.2909 19.1921C26.3944 15.3318 29.0088 11.92 32.2786 8.98727C39.2902 2.69555 48.5105 -0.605472 57.8971 0.0919034C66.3518 0.721075 70.3074 4.71606 71.1987 4.71265C74.0458 4.70242 76.6569 5.28726 79.1101 6.73828C85.7872 10.6855 90.3388 18.4453 92.7054 25.7822C96.4386 37.358 96.5066 48.3063 95.4523 60.3236L95.2774 65.9589C95.2146 67.9981 95.7748 69.9317 96.6356 71.7323C98.1482 74.8901 101.561 76.1996 104.841 74.9889L105.369 75.0009C105.523 75.0043 105.521 75.4681 105.498 75.671C102.788 80.8322 96.5762 82.3702 91.4949 79.3335C92.4473 82.1554 94.6815 83.7002 97.6712 84.3703C94.2333 87.0541 89.7887 87.1018 85.8823 85.4871C86.4052 86.4266 87.1029 86.9927 87.9637 87.8947C81.9928 89.3116 75.5534 86.9091 71.1801 82.6277V87.5571C74.3921 88.4931 76.9727 90.957 79.8554 92.3313C82.1269 93.4123 84.4579 94.0892 86.8635 94.8616L99.7034 98.9776C101.776 99.6426 103.678 100.461 105.411 101.907C104.021 102.251 102.919 102.742 101.856 103.646L99.7322 102.882L83.0182 97.5624L87.3423 105.28C87.7939 106.086 87.855 107.3 86.8398 107.733L81.0319 110.207L84.7431 113.012C85.2983 113.432 85.6293 114.32 85.2235 115.007C80.6822 122.695 75.9982 130.196 70.8643 137.531L57.999 155.247C57.7342 155.612 57.3539 155.915 57.0194 155.942C56.651 155.973 56.1655 155.724 55.9227 155.397L48.0589 144.728L38.6281 131.195L38.6111 125.918L38.5653 124.526C43.5226 131.971 48.3645 139.088 53.8362 146.249L53.8396 146.247ZM25.9003 60.1258C26.9767 61.3074 28.3909 62.1037 29.9426 62.102C30.5639 61.6348 31.1531 61.3705 31.8304 61.4234C32.3465 61.5734 33.0273 61.9144 33.2056 62.5283C33.9645 65.1558 34.8761 67.5344 36.2021 69.9385C39.7724 76.4144 45.6855 81.1988 52.8006 83.2142C56.1196 84.1537 59.4539 83.9576 62.6898 82.7777C70.2039 80.0343 76.1221 74.2507 79.1576 66.7995C82.3561 58.951 83.5988 49.6788 82.2288 41.3052C76.5516 36.1866 72.7216 29.6988 70.1258 22.4727C68.0104 28.2699 64.3875 33.3971 59.4828 37.1312C56.741 39.1415 53.8413 40.5925 50.4866 41.0426L49.9705 40.983C49.8568 40.9693 49.9535 40.526 50.0011 40.4254C53.2963 37.4279 55.8276 33.7688 57.3386 29.4379L54.2488 32.444C47.7618 38.2838 40.0134 42.4783 31.5775 44.7C31.2193 47.2764 31.3755 49.759 31.6437 52.3115C31.7473 53.2953 30.7066 53.9552 29.9188 53.8819C27.5267 53.6602 28.4095 50.8332 27.5641 48.6183C26.975 47.5611 25.301 47.8698 24.5337 48.5705C21.7851 51.0753 23.0465 56.9902 25.9054 60.1275L25.9003 60.1258ZM89.6682 48.9627C88.8719 47.9687 87.6054 47.6293 86.5172 48.3335C86.3491 53.0037 85.5665 57.4932 84.4664 62.0628C89.6427 61.1489 92.5679 52.5809 89.6682 48.9627ZM70.0443 94.9468C68.4603 93.4924 67.9782 91.743 67.7286 89.8078L67.4892 84.6056C59.9225 88.5528 53.7734 88.3243 46.2338 84.522L45.9894 90.3892C45.6974 92.1983 45.0132 93.6953 43.7314 95.0474L46.8314 108.427C53.5951 109.772 60.3962 109.844 67.0308 108.376L70.0443 94.9485V94.9468ZM80.9996 114.872L75.6467 110.712C74.9846 110.059 75.0797 108.978 75.8607 108.466L83.1167 105.263L77.4412 95.281L74.0356 93.1463L73.0289 98.4849L70.7845 108.17C68.0274 119.365 64.8781 130.319 61.4386 141.309L60.0023 146.259L66.6115 137.154C71.8201 129.979 76.5313 122.566 80.9979 114.874L80.9996 114.872ZM66.0462 112.083C59.6797 113.188 53.787 113.091 47.7618 112.071C50.507 122.663 53.4678 132.881 56.9074 143.483C60.3181 133.025 63.2466 122.753 66.0462 112.085V112.083Z" fill="url(#paint0_linear_0_21)"/>
<defs>
<linearGradient id="paint0_linear_0_21" x1="30.8469" y1="-1.80376e-06" x2="112.067" y2="22.8202" gradientUnits="userSpaceOnUse">
<stop stop-color="#46B9BD"/>
<stop offset="1" stop-color="#007083"/>
</linearGradient>
</defs>
</svg>
