<svg preserveAspectRatio="none" width="100%" height="100%" overflow="visible" style="display: block;" viewBox="0 0 187.004 177.582" fill="none" xmlns="http://www.w3.org/2000/svg">
<g id="Group">
<path id="Vector" d="M86.1207 176.166C85.8709 177.097 85.2531 177.709 84.3704 177.52C83.4168 177.317 83.1198 176.431 83.3645 175.535L86.0008 165.916C86.6253 163.64 86.8566 161.479 86.6 159.126C86.5257 158.445 86.357 158.133 85.9637 157.564C78.4598 146.709 73.5635 134.495 70.2622 121.759C70.0714 121.026 70.5643 120.273 71.1094 119.946L75.0217 117.6L72.6538 114.661C72.0985 113.971 72.436 113.007 72.9947 112.429L76.134 109.191L61.9143 105.908C61.0333 105.705 60.1185 105.401 59.4383 104.849L55.8956 101.97L44.6482 91.7192L37.897 85.1743C35.2573 82.6141 31.3652 81.6628 32.6513 79.7552C33.1188 79.0623 34.1467 78.8878 34.8353 79.4985C36.9535 80.8222 38.9603 82.1007 40.8574 83.812L48.4896 81.8876C47.9714 78.1328 47.2069 74.5105 46.3444 70.7758L31.3669 72.1969L24.0233 73.1129C22.6866 73.279 21.3532 73.7874 20.3794 74.6884C19.3566 75.6346 18.9616 77.0003 18.8604 78.3861C18.6663 81.0605 19.5979 83.6442 21.3245 85.7414L35.0514 102.412L44.1925 113.127L56.5691 128.046C57.6948 124.392 58.9168 121.009 60.343 117.622C60.6535 116.884 61.597 116.738 62.1084 117.001C62.8443 117.379 63.0435 118.067 62.7532 118.845C58.6096 130.004 56.7969 135.307 57.364 147.728C57.8872 159.187 57.6645 165.579 53.5513 176.372C53.2526 177.154 52.7833 177.647 51.9276 177.575C51.2711 177.52 50.4609 176.738 50.7462 175.946C52.8711 170.052 54.3496 165.081 54.6315 158.724C54.7986 154.967 54.7564 151.345 54.515 147.555C54.1707 142.153 54.4273 136.958 55.6323 131.651L51.3437 126.274L44.0068 117.463L22.8436 92.2846L18.5582 86.9494C14.9413 82.4463 14.5801 73.6196 20.4941 71.1131C21.9912 70.4789 23.5322 70.0661 25.2132 69.9L47.1309 67.7408L60.8122 66.4439L60.4696 69.2927L49.2339 70.499L51.212 80.7115L60.1877 79.0941L60.4409 81.8004L51.2593 83.5268L50.4171 84.275L42.9469 86.2363L57.2493 99.2758C58.5995 100.507 59.835 101.798 61.4485 102.643C62.4966 103.192 63.8367 103.354 65.0249 103.63L78.6707 106.792C80.7113 105.608 82.5341 104.625 84.7941 103.994L84.8042 100.472C82.1189 102.083 79.1163 103.026 75.9804 102.49C74.1778 102.183 72.4546 101.601 71.1364 100.316C71.874 99.6064 72.5052 99.0628 72.9829 98.2474C68.8697 100.432 64.1 99.9335 60.6468 96.922L60.4172 96.3448C60.3666 96.2173 60.8291 96.1603 60.9827 96.1502C62.9911 96.0244 64.7245 94.7174 65.5059 92.7393C63.2544 94.1553 60.3497 94.3651 58.1624 92.7141C57.4535 92.1789 56.8256 91.533 56.7615 90.5582C58.4611 91.0448 59.9599 90.7143 61.0198 89.414C61.9228 88.305 62.3515 86.8319 62.2451 85.3555L61.8485 79.7837C61.1599 70.0896 62.9979 60.3587 66.706 51.3542C70.5575 42.0024 78.2691 34.0817 88.1376 31.4258C93.606 29.9544 100.548 29.9779 104.521 34.2344C109.697 33.5079 114.143 36.4674 117.595 40.1652C124.71 47.7906 127.882 57.5635 129.421 67.7727C130.127 72.4469 130.204 76.9886 129.721 81.6695L129.612 85.3639C129.575 86.587 130.155 87.6876 130.835 88.664C131.878 89.8854 133.522 90.4223 135.028 89.7311C135.121 89.7361 135.327 89.7529 135.338 89.8301L135.399 90.2294C134.775 91.5783 133.71 92.4222 132.343 92.9792C130.371 93.7695 128.316 93.3467 126.3 92.3165C127.078 94.4338 128.959 95.8331 131.107 95.9975C131.254 96.0093 131.473 96.0545 131.566 96.0881C131.688 96.1317 131.559 96.4924 131.484 96.6367C128.172 99.7439 123.434 100.2 119.24 98.1937C119.553 98.9554 120.407 99.5476 120.95 100.009C121.753 100.689 117.183 102.843 114.541 102.552C112.361 102.428 110.378 101.784 108.577 100.578L108.281 100.469C108.234 100.452 108.246 100.67 108.248 100.734L108.339 103.967C109.79 104.385 110.914 104.997 112.189 105.71L113.974 106.71L129.001 103.266C130.226 102.984 131.154 102.573 132.086 101.727L149.111 86.2716L141.723 84.3858C141.242 84.2633 140.804 83.9697 140.451 83.5687L131.269 81.8423L131.565 79.1545L140.498 80.7266L142.564 70.6936L131.335 69.796L131.004 66.9824L144.291 67.9555L166.185 69.4387C167.97 69.5595 169.613 69.9923 171.18 70.7138C176.939 73.3629 177.13 81.7987 172.997 87.1339C166.574 95.422 159.872 103.361 153.067 111.352L145.707 119.994L132.964 135.181L128.132 149.293C125.335 158.445 122.888 167.547 120.585 176.807C120.395 177.573 119.325 177.672 118.859 177.468C118.066 177.117 117.794 176.501 118.013 175.594C120.41 165.668 123.112 155.922 126.128 146.149L130.145 134.472C130.756 129.118 130.479 123.865 129.392 118.588C129.267 117.788 129.651 117.139 130.412 116.927C130.915 116.788 131.824 117.157 132.003 117.86C133.026 121.904 133.281 125.905 133.311 130.257L141.571 120.402L150.299 110.117C157.143 102.051 163.874 94.0412 170.429 85.7481C172.326 83.3472 173.321 80.4749 172.821 77.4718C172.195 73.7052 169.162 72.6063 165.449 72.3462L145.467 70.947L144.37 75.7487L143.237 81.8759L151.128 83.8623L154.287 81.4027L157.698 79.2703C158.353 78.8609 159.15 79.2435 159.52 79.829C160.708 81.7198 156.262 82.9949 154.147 85.1206L149.772 89.518L136.716 101.475L133.073 104.588C132.204 105.331 131.067 105.737 129.922 105.997L116.01 109.166L119.279 114.095C119.625 114.617 119.607 115.558 119.068 115.966L115.252 118.87L118.518 122.231C119.011 122.738 118.911 123.741 118.489 124.278L112.417 131.999L101.856 143.458L89.1148 155.784L89.4321 159.474C89.6043 161.472 89.5266 163.443 89.0068 165.388L86.1207 176.171V176.166ZM77.707 66.0379C76.3872 67.3096 75.4707 68.6803 74.7078 70.2759C75.1601 76.1967 77.2057 83.6023 80.3839 88.5416C83.5046 93.392 89.665 97.2491 95.2432 98.5813C97.4593 99.1097 99.7192 98.9134 101.809 97.9554C104.536 96.7055 106.963 95.0697 109.193 93.0816C112.417 90.2059 114.624 86.6239 115.691 82.4564L116.823 76.3258C117.318 72.5509 117.473 68.9118 117.119 65.105C115.723 62.7344 114.255 60.5583 112.546 58.4158L108.16 52.8776L102.982 45.727C100.507 53.0487 94.6542 59.3386 88.1848 63.1622L89.4338 63.8534C89.6971 63.9994 89.9013 64.6319 89.7444 64.9071C89.552 65.2409 89.1165 65.4473 88.7114 65.3634C85.2599 64.6587 83.3881 65.4439 80.578 67.4958C80.2877 67.7072 79.7121 67.677 79.4978 67.4019C78.7113 66.3952 81.7949 64.0531 83.8506 63.5078C88.8346 59.805 93.8187 53.7953 94.4905 47.6212L92.5647 50.3995C90.7385 53.0353 88.6287 55.3489 86.3502 57.6122L82.9662 60.9727L77.7087 66.0379H77.707ZM123.856 68.3213C122.996 67.0646 121.369 66.86 120.248 67.8784L120.072 71.1986C119.912 74.237 119.551 77.1379 119.05 80.1981C123.747 79.4481 126.162 71.6919 123.855 68.3213H123.856ZM75.1281 84.124C74.0546 81.2752 73.2799 78.5757 72.6926 75.7286L72.139 73.2623C71.2934 72.3613 69.9043 72.3261 69.0149 73.2925C66.9963 75.4853 68.3127 80.1713 71.079 82.5134C72.2251 83.4831 73.5702 84.1693 75.1281 84.1224V84.124ZM107.542 110.077C107.635 109.839 107.581 109.072 107.459 108.859C106.354 107.551 105.608 105.668 105.6 103.859L105.574 98.9319C101.962 101.195 99.0002 102.344 94.6575 101.346C92.168 100.727 89.9283 99.7691 87.6448 98.5594L87.6127 102.97C87.5941 105.42 86.7435 107.557 85.0422 109.369L85.0945 114.772C91.2887 117.196 99.3648 117.263 105.687 114.887L107.544 110.074L107.542 110.077ZM115.822 123.243L112.455 119.84C112.116 119.498 111.942 118.833 112.038 118.342C112.103 118.01 112.479 117.602 112.842 117.335L116.415 114.708L112.842 109.576C112.136 108.564 110.96 107.946 109.772 107.215C110.322 108.735 110.484 110.079 109.9 111.54L106.867 119.115C103.036 127.405 98.8129 135.374 94.3706 143.366L89.8693 151.467C95.3884 146.317 100.423 141.193 105.412 135.76C109.102 131.744 112.56 127.694 115.824 123.244L115.822 123.243ZM85.9131 152.501C84.6776 143.141 83.5687 134.096 82.8717 124.781C82.497 119.776 82.1864 115.006 82.2303 110.01C82.2387 109.089 82.6928 108.259 82.978 107.426C81.9164 107.913 80.9138 108.406 80.1661 109.144L75.4184 113.827L77.8133 116.758C78.1307 117.147 78.3939 117.6 78.3197 118.1C78.2572 118.523 77.896 118.954 77.4758 119.208L73.1483 121.827C76.0074 132.658 80.1138 143.055 85.9131 152.501ZM88.2372 148.543C94.0702 138.567 99.3361 128.766 104.216 118.397C97.8407 120.025 91.4372 119.927 85.2633 117.964C85.6886 126.288 86.4599 134.254 87.4169 142.344L88.2372 148.543Z" fill="url(#paint0_linear_0_29)"/>
<path id="Vector_2" d="M187.004 154.366C187.004 167.174 176.558 177.557 163.673 177.557C150.789 177.557 140.343 167.174 140.343 154.366C140.343 141.558 150.789 131.174 163.673 131.174C176.558 131.174 187.004 141.558 187.004 154.366ZM183.984 154.366C183.984 143.215 174.892 134.177 163.675 134.177C152.458 134.177 143.366 143.215 143.366 154.366C143.366 165.516 152.458 174.554 163.675 174.554C174.892 174.554 183.984 165.516 183.984 154.366Z" fill="url(#paint1_linear_0_29)"/>
<path id="Vector_3" d="M44.4474 29.9938C44.4474 38.2014 37.7536 44.8537 29.4986 44.8537C21.2436 44.8537 14.5498 38.1997 14.5498 29.9938C14.5498 21.7879 21.2436 15.134 29.4986 15.134C37.7536 15.134 44.4474 21.7879 44.4474 29.9938ZM41.4229 29.9921C41.4229 23.4422 36.081 18.1338 29.4936 18.1338C22.9061 18.1338 17.5642 23.4439 17.5642 29.9921C17.5642 36.5404 22.9061 41.8505 29.4936 41.8505C36.081 41.8505 41.4229 36.5404 41.4229 29.9921Z" fill="url(#paint2_linear_0_29)"/>
<path id="Vector_4" d="M30.9299 9.82869C30.9299 10.7565 29.9813 11.1591 29.3552 11.1273C28.648 11.092 27.8767 10.6206 27.875 9.76996L27.8665 1.54897C27.8665 0.668149 28.5839 0.0457025 29.3535 0.00208088C30.0826 -0.0381852 30.9434 0.508762 30.9417 1.39629L30.9316 9.82869H30.9299Z" fill="url(#paint3_linear_0_29)"/>
<path id="Vector_5" d="M9.45096 31.7636L1.59934 31.7955C0.746999 31.7988 0.134329 31.2099 0.00943252 30.4063C-0.0783328 29.8375 0.465137 28.7654 1.30566 28.7638L9.52522 28.7537C10.3117 28.7537 10.8316 29.5322 10.8771 30.1546C10.9261 30.8341 10.3759 31.7602 9.45096 31.7636Z" fill="url(#paint4_linear_0_29)"/>
<path id="Vector_6" d="M30.9467 57.7873C30.9467 58.7251 30.1788 59.2671 29.5138 59.2956C28.7053 59.3308 27.8851 58.7906 27.8834 57.8846L27.8614 50.1686C27.8597 49.2978 28.442 48.7039 29.1948 48.5965C29.9475 48.4892 30.9332 48.9355 30.9349 49.8599L30.9467 57.7873Z" fill="url(#paint5_linear_0_29)"/>
<path id="Vector_7" d="M57.3438 31.7636H49.1732C48.4035 31.7636 47.8837 30.9197 47.8888 30.3073C47.8938 29.6949 48.4002 28.752 49.1934 28.7537L57.3894 28.7722C58.1742 28.7738 58.6535 29.5607 58.6738 30.1462C58.6957 30.7922 58.2603 31.7653 57.3455 31.7653L57.3438 31.7636Z" fill="url(#paint6_linear_0_29)"/>
<path id="Vector_8" d="M50.0661 48.1669C50.7547 48.8497 50.937 49.7087 50.3344 50.4167C49.8973 50.9284 48.8154 51.2472 48.1926 50.6231L42.655 45.0781C42.0929 44.5161 42.3545 43.6453 42.822 43.1252C43.2389 42.6621 44.1959 42.335 44.8069 42.9407L50.0661 48.1669Z" fill="url(#paint7_linear_0_29)"/>
<path id="Vector_9" d="M45.0128 17.439C44.3883 18.0564 43.6812 18.1319 43.0567 17.7259C42.5318 17.3836 41.9765 16.3535 42.5554 15.7612L48.0306 10.1676C48.6804 9.50321 49.7673 9.55522 50.3159 10.176C50.9218 10.8605 50.7648 11.7514 50.1167 12.3923L45.0128 17.439Z" fill="url(#paint8_linear_0_29)"/>
<path id="Vector_10" d="M15.7413 15.6603C16.3354 16.2391 16.4046 17.0058 16.0029 17.6669C15.689 18.182 14.6375 18.7457 14.0434 18.1702L8.33187 12.642C7.7479 12.0766 7.85423 11.1488 8.40107 10.5985C8.85509 10.1405 9.85426 9.91902 10.472 10.5197L15.7413 15.6603Z" fill="url(#paint9_linear_0_29)"/>
<path id="Vector_11" d="M10.7877 50.3093C10.0855 51.0273 9.17076 51.0743 8.49396 50.4653C7.81715 49.8563 7.8796 48.9117 8.58679 48.207L13.797 43.011C14.3472 42.4607 15.1675 42.6218 15.6823 42.9842C16.1971 43.3466 16.6173 44.3516 16.0587 44.922L10.7877 50.3076V50.3093Z" fill="url(#paint10_linear_0_29)"/>
<path id="Vector_12" d="M81.5722 166.039C82.9928 166.039 84.1444 164.894 84.1444 163.482C84.1444 162.07 82.9928 160.925 81.5722 160.925C80.1516 160.925 79 162.07 79 163.482C79 164.894 80.1516 166.039 81.5722 166.039Z" fill="url(#paint11_linear_0_29)"/>
<path id="Vector_13" d="M103.603 87.8878C100.926 91.0621 96.0265 91.8339 92.5007 89.0555C92.1327 88.7652 92.0112 88.126 92.2238 87.7217C92.4129 87.361 93.115 87.0623 93.5707 87.3207C96.3843 88.9162 99.7767 88.5924 102.178 86.4365C102.523 86.1278 103.216 86.1765 103.5 86.4281C103.849 86.7385 103.969 87.4516 103.603 87.8861V87.8878Z" fill="url(#paint12_linear_0_29)"/>
<path id="Vector_14" d="M81.2751 76.3871C80.7013 75.8938 80.524 75.2848 80.9038 74.7664C81.2059 74.352 81.9215 74.248 82.4127 74.6003C84.6018 76.1707 87.4237 75.8854 89.1757 73.8302C89.4626 73.493 90.0989 73.4426 90.3926 73.6473C90.7774 73.9158 90.9749 74.5902 90.6846 75.0583C88.7014 78.2527 84.1579 78.8601 81.2751 76.3871Z" fill="url(#paint13_linear_0_29)"/>
<path id="Vector_15" d="M102.81 73.5733C102.325 73.1338 102.352 72.4006 102.649 72.0684C103.024 71.6489 103.654 71.6489 104.119 71.9828C106.163 73.4492 108.838 73.1069 110.498 71.2278C110.887 70.7866 111.559 70.743 111.919 71.0382C112.417 71.4459 112.374 72.0701 112.006 72.6103C109.968 75.6101 105.557 76.0698 102.81 73.575V73.5733Z" fill="url(#paint14_linear_0_29)"/>
<path id="Vector_16" d="M110.832 63.5602C108.158 61.7046 104.86 61.7482 102.278 63.6172C101.976 63.6743 101.404 63.3437 101.323 63.0887C101.232 62.8001 101.319 62.129 101.61 61.8908C104.678 59.3775 109.159 59.5235 111.973 62.3237C112.263 62.6122 112.248 63.2347 112.059 63.4897C111.814 63.8185 111.238 63.842 110.832 63.5602Z" fill="url(#paint15_linear_0_29)"/>
<path id="Vector_17" d="M97.8491 83.4065C97.6061 83.4719 97.0289 83.3595 96.9732 83.1984C96.7622 82.5844 97.4694 81.9149 97.2837 81.1935C96.8719 80.7036 96.396 80.1533 96.3841 79.5174C96.3791 79.2138 96.7116 78.7356 96.9293 78.6081C97.147 78.4806 97.7141 78.6047 97.8491 78.8379L98.9192 80.6768C99.4711 81.623 99.0087 83.0944 97.8475 83.4082L97.8491 83.4065Z" fill="url(#paint16_linear_0_29)"/>
<path id="Vector_18" d="M173.164 162.511L162.976 156.147C162.477 155.835 161.958 155.439 161.96 154.758L161.967 140.213C161.967 139.445 162.711 138.922 163.266 138.829C163.867 138.73 164.944 139.118 164.944 139.932L164.968 153.674L174.399 159.697C175.057 160.117 175.339 160.815 175.103 161.521C174.867 162.226 174.158 162.62 173.164 162.512V162.511Z" fill="url(#paint17_linear_0_29)"/>
</g>
<defs>
<linearGradient id="paint0_linear_0_29" x1="62.6786" y1="30.5452" x2="172.991" y2="80.3659" gradientUnits="userSpaceOnUse">
<stop stop-color="#46B9BD"/>
<stop offset="1" stop-color="#007083"/>
</linearGradient>
<linearGradient id="paint1_linear_0_29" x1="153.985" y1="131.174" x2="186.98" y2="144.958" gradientUnits="userSpaceOnUse">
<stop stop-color="#46B9BD"/>
<stop offset="1" stop-color="#007083"/>
</linearGradient>
<linearGradient id="paint2_linear_0_29" x1="23.2907" y1="15.134" x2="44.4325" y2="23.9662" gradientUnits="userSpaceOnUse">
<stop stop-color="#46B9BD"/>
<stop offset="1" stop-color="#007083"/>
</linearGradient>
<linearGradient id="paint3_linear_0_29" x1="28.7656" y1="-1.28534e-07" x2="31.2865" y2="0.289272" gradientUnits="userSpaceOnUse">
<stop stop-color="#46B9BD"/>
<stop offset="1" stop-color="#007083"/>
</linearGradient>
<linearGradient id="paint4_linear_0_29" x1="3.18105" y1="28.7537" x2="5.99933" y2="32.9399" gradientUnits="userSpaceOnUse">
<stop stop-color="#46B9BD"/>
<stop offset="1" stop-color="#007083"/>
</linearGradient>
<linearGradient id="paint5_linear_0_29" x1="28.7634" y1="48.5809" x2="31.2898" y2="48.8829" gradientUnits="userSpaceOnUse">
<stop stop-color="#46B9BD"/>
<stop offset="1" stop-color="#007083"/>
</linearGradient>
<linearGradient id="paint6_linear_0_29" x1="51.0421" y1="28.7537" x2="53.831" y2="32.9017" gradientUnits="userSpaceOnUse">
<stop stop-color="#46B9BD"/>
<stop offset="1" stop-color="#007083"/>
</linearGradient>
<linearGradient id="paint7_linear_0_29" x1="44.7812" y1="42.6104" x2="50.7041" y2="45.0717" gradientUnits="userSpaceOnUse">
<stop stop-color="#46B9BD"/>
<stop offset="1" stop-color="#007083"/>
</linearGradient>
<linearGradient id="paint8_linear_0_29" x1="44.7611" y1="9.68959" x2="50.6815" y2="12.1773" gradientUnits="userSpaceOnUse">
<stop stop-color="#46B9BD"/>
<stop offset="1" stop-color="#007083"/>
</linearGradient>
<linearGradient id="paint9_linear_0_29" x1="10.3711" y1="10.1543" x2="16.25" y2="12.6127" gradientUnits="userSpaceOnUse">
<stop stop-color="#46B9BD"/>
<stop offset="1" stop-color="#007083"/>
</linearGradient>
<linearGradient id="paint10_linear_0_29" x1="10.4475" y1="42.6535" x2="16.3153" y2="45.1109" gradientUnits="userSpaceOnUse">
<stop stop-color="#46B9BD"/>
<stop offset="1" stop-color="#007083"/>
</linearGradient>
<linearGradient id="paint11_linear_0_29" x1="80.504" y1="160.925" x2="84.1418" y2="162.445" gradientUnits="userSpaceOnUse">
<stop stop-color="#46B9BD"/>
<stop offset="1" stop-color="#007083"/>
</linearGradient>
<linearGradient id="paint12_linear_0_29" x1="95.542" y1="86.2219" x2="100.072" y2="91.0722" gradientUnits="userSpaceOnUse">
<stop stop-color="#46B9BD"/>
<stop offset="1" stop-color="#007083"/>
</linearGradient>
<linearGradient id="paint13_linear_0_29" x1="83.6616" y1="73.5261" x2="88.0414" y2="77.7253" gradientUnits="userSpaceOnUse">
<stop stop-color="#46B9BD"/>
<stop offset="1" stop-color="#007083"/>
</linearGradient>
<linearGradient id="paint14_linear_0_29" x1="105.315" y1="70.8499" x2="109.645" y2="74.9347" gradientUnits="userSpaceOnUse">
<stop stop-color="#46B9BD"/>
<stop offset="1" stop-color="#007083"/>
</linearGradient>
<linearGradient id="paint15_linear_0_29" x1="104.477" y1="60.1088" x2="108.04" y2="64.5342" gradientUnits="userSpaceOnUse">
<stop stop-color="#46B9BD"/>
<stop offset="1" stop-color="#007083"/>
</linearGradient>
<linearGradient id="paint16_linear_0_29" x1="97.1931" y1="78.557" x2="99.3701" y2="79.0709" gradientUnits="userSpaceOnUse">
<stop stop-color="#46B9BD"/>
<stop offset="1" stop-color="#007083"/>
</linearGradient>
<linearGradient id="paint17_linear_0_29" x1="165.827" y1="138.814" x2="176.252" y2="141.228" gradientUnits="userSpaceOnUse">
<stop stop-color="#46B9BD"/>
<stop offset="1" stop-color="#007083"/>
</linearGradient>
</defs>
</svg>
