<svg preserveAspectRatio="none" width="100%" height="100%" overflow="visible" style="display: block;" viewBox="0 0 20.6342 22.476" fill="none" xmlns="http://www.w3.org/2000/svg">
<path id="Vector" d="M7.2747 22.1796C7.10663 22.3535 6.6058 22.5291 6.37661 22.4609C6.15761 22.3961 5.92841 22.0278 5.82146 21.709L0 4.48775C3.43278 5.90808 6.84688 5.02315 9.0624 2.29162C9.45457 1.8159 9.97577 1.52604 10.6022 1.45954C11.9451 1.28051 13.1301 0.821845 14.1912 0L16.877 7.04025L20.6153 16.9229C20.6951 17.1343 20.5067 17.6816 20.3369 17.8231C20.1671 17.9646 19.7189 18.009 19.4609 17.922L11.7719 15.3286L7.2764 22.1779L7.2747 22.1796Z" fill="url(#paint0_linear_0_7)"/>
<defs>
<linearGradient id="paint0_linear_0_7" x1="6.03264" y1="-2.60144e-07" x2="20.9956" y2="5.70462" gradientUnits="userSpaceOnUse">
<stop stop-color="#46B9BD"/>
<stop offset="1" stop-color="#007083"/>
</linearGradient>
</defs>
</svg>
