<svg preserveAspectRatio="none" width="100%" height="100%" overflow="visible" style="display: block;" viewBox="0 0 20.6266 22.4291" fill="none" xmlns="http://www.w3.org/2000/svg">
<path id="Vector" d="M14.7152 21.9972C14.6405 22.2171 14.0853 22.4763 13.8663 22.4217C13.6473 22.3672 13.3485 22.0824 13.1822 21.8266L8.88015 15.2655L1.08765 17.8896C0.82111 17.98 0.328772 17.8743 0.164094 17.7055C-0.000584078 17.5367 -0.0498203 16.9331 0.055438 16.6569L6.3964 0C7.64252 0.861062 8.82923 1.31801 10.2366 1.41009C10.7697 1.47147 11.1992 1.73747 11.549 2.15522C13.7305 4.91061 17.2618 5.8467 20.6266 4.46559L14.7169 21.9972H14.7152Z" fill="url(#paint0_linear_0_11)"/>
<defs>
<linearGradient id="paint0_linear_0_11" x1="6.03043" y1="-2.59601e-07" x2="20.9814" y2="5.70984" gradientUnits="userSpaceOnUse">
<stop stop-color="#46B9BD"/>
<stop offset="1" stop-color="#007083"/>
</linearGradient>
</defs>
</svg>
