<svg preserveAspectRatio="none" width="100%" height="100%" overflow="visible" style="display: block;" viewBox="0 0 25.3301 27.7265" fill="none" xmlns="http://www.w3.org/2000/svg">
<path id="Vector" d="M14.5511 22.0844C13.2252 25.486 14.0248 27.7998 12.6548 27.7248C12.2473 27.7026 11.8602 27.3087 11.8195 26.8569C11.2083 19.9974 7.8689 15.5403 0.867529 14.8208C0.35482 14.7679 0 14.3723 0 13.8745C0 13.4635 0.404059 13.0663 0.894699 13.0151C5.53795 12.5445 8.96393 10.3279 10.6939 5.94758C11.3458 4.29707 11.6395 2.61927 11.8467 0.820422C11.8993 0.370283 12.2252 0.0395005 12.6666 0.00198888C13.0639 -0.0321126 13.5002 0.377101 13.5291 0.861342C13.7702 4.89725 15.5799 9.32362 19.0823 11.3492C22.6153 13.3919 25.2993 12.4814 25.3299 13.8779C25.3401 14.3348 24.953 14.7918 24.4471 14.8361C19.668 15.2539 16.2964 17.6018 14.5511 22.0827V22.0844Z" fill="url(#paint0_linear_0_9)"/>
<defs>
<linearGradient id="paint0_linear_0_9" x1="7.40553" y1="-3.20888e-07" x2="25.7965" y2="6.97725" gradientUnits="userSpaceOnUse">
<stop stop-color="#46B9BD"/>
<stop offset="1" stop-color="#007083"/>
</linearGradient>
</defs>
</svg>
