<svg preserveAspectRatio="none" width="100%" height="100%" overflow="visible" style="display: block;" viewBox="0 0 51.8074 25.5591" fill="none" xmlns="http://www.w3.org/2000/svg">
<path id="Vector" d="M32.2532 5.69154L48.519 1.76134C49.76 1.45614 50.6615 0.907105 51.8074 0.027287L51.7905 21.0662C51.7888 23.3118 49.7532 25.5301 47.4171 25.5318L4.72304 25.5591C1.93539 25.5608 -0.0016966 23.2623 1.11505e-06 20.5956L0.0152805 0C1.23254 0.975302 2.32078 1.5755 3.72478 1.82103L19.5967 5.67449L19.5916 7.84675C19.5882 9.25685 20.6476 10.5987 22.1704 10.6004L29.6421 10.6039C31.058 10.6039 32.2124 9.4086 32.2277 8.00703L32.2532 5.69495V5.69154Z" fill="url(#paint0_linear_0_10)"/>
<defs>
<linearGradient id="paint0_linear_0_10" x1="15.1465" y1="-2.95828e-07" x2="40.3309" y2="21.1992" gradientUnits="userSpaceOnUse">
<stop stop-color="#46B9BD"/>
<stop offset="1" stop-color="#007083"/>
</linearGradient>
</defs>
</svg>
