<svg preserveAspectRatio="none" width="100%" height="100%" overflow="visible" style="display: block;" viewBox="0 0 20.8821 20.0498" fill="none" xmlns="http://www.w3.org/2000/svg">
<path id="Vector" d="M10.5022 16.6201L5.03387 19.9416C4.81826 20.0729 4.29027 20.0337 4.10862 19.9348C3.8964 19.8171 3.64514 19.3039 3.69946 19.0532L5.02878 12.828L0.485693 8.80915C0.219152 8.57215 -0.00664155 8.20044 0.000149309 7.87136C0.00694016 7.57809 0.490793 7.11261 0.821847 7.08533L7.22562 6.54653L9.65165 0.498626C9.74842 0.256506 10.2374 0.0160933 10.4513 0.000747613C10.694 -0.0163031 11.1949 0.261618 11.2882 0.495213L13.6837 6.51583L20.0247 7.06487C20.2946 7.08874 20.6613 7.2797 20.7836 7.45532C20.9245 7.65993 20.9262 8.36072 20.7106 8.54999L15.8992 12.7837L17.2252 18.91C17.2846 19.1879 17.1521 19.6619 16.9841 19.829C16.816 19.9961 16.2048 20.1291 15.9841 19.9944L10.5005 16.6184L10.5022 16.6201Z" fill="url(#paint0_linear_0_8)"/>
<defs>
<linearGradient id="paint0_linear_0_8" x1="6.10511" y1="-2.32e-07" x2="20.7157" y2="6.3193" gradientUnits="userSpaceOnUse">
<stop stop-color="#46B9BD"/>
<stop offset="1" stop-color="#007083"/>
</linearGradient>
</defs>
</svg>
